<?xml version="1.0" encoding="UTF-8" standalone="no"?><svg xmlns="http://www.w3.org/2000/svg" xmlns:xlink="http://www.w3.org/1999/xlink" width="786.86" height="894.54" viewBox="0 0 786.85715 894.53603"><g fill-rule="evenodd"><path d="m232.9 54.932c-10.769.012-22.632.428-30.77 1.867-19.432 3.436-39.775 7.912-56.04 19.09-5.285 3.633-12.316 14.779-12.316 14.779l26.48 88.06c0 0 19.704 11.09 27.09 20.322 7.39 9.237 51.73 8.01 60.967 8.01 9.237 0 49.879-21.555 49.879-21.555 0 0-11.699-79.44-13.547-82.52-1.847-3.079-25.865-47.42-25.865-47.42 0 0-12.04-.65-25.885-.635m321.06 0c-13.846-.016-25.885.635-25.885.635 0 0-24.02 44.34-25.865 47.42-1.847 3.079-13.547 82.52-13.547 82.52 0 0 40.644 21.555 49.881 21.555 9.237 0 53.58 1.231 60.965-8.01 7.39-9.237 27.09-20.322 27.09-20.322l26.48-88.06c0 0-7.03-11.147-12.316-14.779-16.262-11.178-36.607-15.653-56.04-19.09-8.138-1.439-19.999-1.855-30.768-1.867m-418.91 61.906c0 0-10.964 10.444-15.703 16.32-5.433 6.736-14.473 21.553-14.473 21.553 0 0-.37 43.21 7.391 62.813 6.862 17.33 17.406 35.14 33.25 44.953 3.01 1.865 10.469 1.848 10.469 1.848l.924-84.37-21.861-63.12m516.76 0l-21.861 63.12.924 84.37c0 0 7.456.017 10.469-1.848 15.848-9.81 26.392-27.623 33.25-44.953 7.761-19.601 7.389-62.813 7.389-62.813 0 0-9.04-14.817-14.471-21.553-4.739-5.876-15.703-16.32-15.703-16.32" fill="#3f59d2"/><path d="m144.93 178.59c-4.919-.044-10.06 1.388-13.887 4.27-4.04 3.038-6.479 8.266-7.389 13.236-1.01 5.51-.238 11.718 2.463 16.625 1.895 3.442 5.601 5.606 8.928 7.695 6.538 4.106 21.24 9.234 21.24 9.234l9.236-40.635c0 0-10.647-9.147-17.24-10.158-1.093-.168-2.216-.257-3.352-.268zm-126.46 31.05c-7.288-.236-16.182 6.6-16.932 13.854-1.125 10.888 20.999 14.612 20.625 25.551-.196 5.733-12.82 6.996-11.697 12.621 2.363 11.843 31.864 3.058 32.939 15.09.512 5.727-14.292 4.101-14.162 9.85.126 5.579 8.814 7.336 14.162 8.928 6.197 1.844 12.97-.437 19.393.309 3.339.388 6.742 3.432 9.852 2.154 6.45-2.65 8.597-11.158 11.391-17.547 2.841-6.499 9.13-14.699 5.232-20.625-5.711-8.682-25.806 4.197-30.783-4.926-3.059-5.607 8.04-11.17 7.695-17.547-.426-7.803-3.939-19.382-11.697-20.318-6.341-.765-6.854 13.669-13.238 13.854-10.378.299-12.402-20.906-22.779-21.242zm101.04 34.709c-.677.03-1.349.153-2.01.387-6.04 2.134-8.397 10.155-10.158 16.314-3.103 10.853-.097 22.576 0 33.863.103 12.01-5.04 25.425.615 36.02 2.118 3.967 6.68 6.775 11.08 7.695 8.293 1.733 17.84-.297 24.936-4.926 7.653-4.993 15.08-19.09 15.699-22.473.616-3.386-2.604-31.378-10.158-44.637-4.06-7.127-10.849-12.667-17.855-16.932-3.469-2.111-7.537-5.141-11.469-5.311-.227 0-.454 0-.68 0zm-103.02 59.811c-5.28-.264-11.28 5.602-11.537 10.883-.403 8.27 17.423 10.514 16.326 18.721-.762 5.705-14.549 3.825-14.367 9.578.302 9.553 24.477 4.813 24.816 14.365.184 5.169-13.193 3.547-12.844 8.707.76 11.234 29.794 3.771 30.26 15.02.185 4.488-10.798 2.534-11.537 6.965-1.433 8.586 14.839 11.535 16.762 20.03 1.804 7.964-6.096 23.729-6.096 23.729 0 0 17.328-23.439 16.979-37.01-.185-7.203-9.891-11.952-10.01-19.16-.137-8.05 13.223-14.212 10.449-21.768-2.026-5.519-13.444-1.942-16.11-7.184-2.353-4.631 3.252-10.04 3.266-15.236.023-8.524 2.653-21.776-5.225-25.03-3.143-1.299-7.03 2.545-8.529 5.598-.907 1.847.988 4.163.475 6.156-.692 2.69-1.799 6.781-4.57 6.967-9.392.629-9.103-20.861-18.504-21.332z" fill="#ff0" stroke="#a55d4f" stroke-width="3"/><path d="m20.805 225.18c0 0 14.01 16.648 21.16 24.85 1.823 2.092 4.607 3.599 5.539 6.213.433 1.213.681 2.891-.166 3.861-1.871 2.142-5.563 1.274-8.396 1.512-5.131.43-15.447-.168-15.447-.168 0 0 8.818 1.829 13.266 2.52 3.677.571 7.648-.095 11.08 1.342 3.233 1.353 5.242 4.714 8.229 6.549 2.518 1.547 5.336 4.839 8.06 3.693 1.371-.576 1.624-2.715 1.51-4.197-.27-3.496-3.2-6.248-5.04-9.234-1.033-1.679-2.686-3.02-3.359-4.869-1.633-4.491-.757-9.529-1.342-14.271-.589-4.777-2.182-14.273-2.182-14.273 0 0-.2 10.219-.842 15.279-.287 2.265.703 5.7-1.342 6.717-1.726.858-3.606-1.442-5.205-2.518-9.503-6.392-25.521-23-25.521-23m121.44 51.12c0 0-5.655 5.388-7.619 8.707-4.525 7.644-5.03 17.16-9.143 25.03-3.857 7.388-14.367 20.461-14.367 20.461 0 0 6.753-2.156 9.797-3.918 3.442-1.993 6.102-5.118 9.359-7.4 4.749-3.328 14.803-9.143 14.803-9.143 0 0-10.548 3.518-15.674 5.658-1.557.65-4.57 2.178-4.57 2.178 0 0 1.393-2.276 1.959-3.482 2.506-5.344 4.107-11.07 6.313-16.545 2.915-7.238 9.143-21.549 9.143-21.549m-89.03 7.48l-11.586 1.176 12.426 2.35-.84-3.525m-35.682 33.08c0 0 4.961 7.64 7.553 11.387 3.02 4.361 6.745 8.258 9.303 12.902 1.114 2.023 2.586 6.43 2.586 6.43 0 0-4.337-.239-6.479-.574-3.809-.596-11.281-2.545-11.281-2.545 0 0 4.04 2.544 6.201 3.527 4.112 1.867 9.146 1.794 12.793 4.457 2.611 1.907 4.329 4.887 5.826 7.752.777 1.487 2.372 3.301 1.578 4.779-1.123 2.09-4.496 1.785-6.867 1.871-3.453.126-10.172-1.988-10.172-1.988 0 0 2.875 2.038 4.496 2.689 3.063 1.23 6.805.541 9.654 2.207 4.052 2.37 6.991 6.439 9.467 10.428 1.331 2.144 2.404 4.549 2.764 7.05.292 2.029 1.318 5.258-.539 6.127-1.297.607-2.321-1.679-3.527-2.451-1.796-1.151-5.516-3.246-5.516-3.246 0 0 3.132 2.86 4.408 4.539 2 2.632 4.147 5.37 5 8.563 1.045 3.894-.051 12.1-.051 12.1 0 0 1.329-.995 1.662-1.719 1.736-3.768.013-8.407 1.172-12.391 1.028-3.531 3.718-6.384 5.02-9.824 1.175-3.111 2.467-9.666 2.467-9.666 0 0-2.01 3.053-2.973 4.604-1.125 1.807-1.17 5.703-3.287 5.477-3.444-.369-2.308-6.533-3.34-9.84-1.067-3.421-2.943-6.758-2.945-10.342-.002-3.899 1.818-7.603 3.193-11.252.72-1.909 2.633-5.525 2.633-5.525 0 0-3.416 3.467-5.127 5.197-1.227 1.241-1.945 3.811-3.688 3.717-1.957-.106-2.699-2.891-3.666-4.596-1.191-2.098-1.99-4.427-2.543-6.775-.465-1.973-.661-4.02-.629-6.05.076-4.791 1.514-9.471 1.941-14.244.187-2.091.271-6.293.271-6.293 0 0-1.264 3.237-1.703 4.914-.544 2.076-.48 4.296-1.146 6.336-.614 1.88-1.358 5.091-2.596 5.336-2.01.397-3.198-2.636-4.615-4.141-1.796-1.907-3.159-4.187-4.889-6.154-3.919-4.458-12.412-12.77-12.412-12.77" fill="#a55d4f"/><path d="m641.93 178.59c-1.135 0-2.258.1-3.352.268-6.593 1.01-17.24 10.158-17.24 10.158l9.236 40.635c0 0 14.702-5.128 21.24-9.234 3.327-2.09 7.03-4.253 8.928-7.695 2.701-4.907 3.471-11.11 2.463-16.625-.91-4.971-3.35-10.199-7.389-13.236-3.83-2.881-8.967-4.314-13.887-4.27zm126.46 31.05c-10.377.336-12.401 21.542-22.779 21.242-6.384-.184-6.897-14.619-13.238-13.854-7.759.937-11.271 12.515-11.697 20.318-.348 6.377 10.754 11.94 7.695 17.547-4.977 9.123-25.07-3.756-30.783 4.926-3.898 5.926 2.391 14.13 5.232 20.625 2.793 6.389 4.941 14.897 11.391 17.547 3.109 1.277 6.513-1.767 9.852-2.154 6.422-.746 13.196 1.535 19.393-.309 5.348-1.591 14.04-3.349 14.162-8.928.13-5.749-14.674-4.122-14.162-9.85 1.076-12.03 30.576-3.243 32.939-15.09 1.123-5.625-11.501-6.888-11.697-12.621-.374-10.939 21.75-14.663 20.625-25.551-.75-7.253-9.643-14.09-16.932-13.854zm-101.71 34.709c-3.932.169-8 3.199-11.469 5.311-7.01 4.265-13.795 9.805-17.855 16.932-7.554 13.259-10.774 41.25-10.158 44.637.616 3.386 8.05 17.48 15.699 22.473 7.096 4.629 16.642 6.659 24.936 4.926 4.402-.92 8.964-3.728 11.08-7.695 5.656-10.592.513-24.01.615-36.02.096-11.287 3.103-23.01 0-33.863-1.761-6.16-4.117-14.18-10.158-16.314-.884-.312-1.784-.426-2.691-.387zm103.7 59.811c-9.401.471-9.112 21.961-18.504 21.332-2.771-.186-3.878-4.277-4.57-6.967-.513-1.993 1.382-4.309.475-6.156-1.499-3.052-5.387-6.897-8.529-5.598-7.877 3.257-5.247 16.509-5.225 25.03.014 5.194 5.619 10.605 3.266 15.236-2.663 5.241-14.08 1.665-16.11 7.184-2.774 7.555 10.587 13.72 10.449 21.768-.123 7.204-9.828 11.954-10.01 19.16-.349 13.567 16.979 37.01 16.979 37.01 0 0-7.899-15.764-6.096-23.729 1.923-8.49 18.19-11.439 16.762-20.03-.739-4.431-11.722-2.476-11.537-6.965.464-11.25 29.498-3.787 30.26-15.02.349-5.16-13.03-3.538-12.844-8.707.339-9.552 24.514-4.812 24.816-14.365.182-5.753-13.605-3.873-14.367-9.578-1.096-8.207 16.729-10.451 16.326-18.721-.257-5.281-6.257-11.147-11.537-10.883z" fill="#ff0" stroke="#a55d4f" stroke-width="3"/><path d="m766.05 225.18c0 0-16.02 16.611-25.521 23-1.599 1.076-3.479 3.375-5.205 2.518-2.045-1.016-1.054-4.452-1.342-6.717-.642-5.06-.842-15.279-.842-15.279 0 0-1.592 9.497-2.182 14.273-.585 4.742.291 9.781-1.342 14.271-.674 1.853-2.326 3.19-3.359 4.869-1.837 2.986-4.767 5.738-5.04 9.234-.114 1.482.139 3.621 1.51 4.197 2.725 1.145 5.542-2.146 8.06-3.693 2.987-1.835 4.995-5.195 8.229-6.549 3.432-1.436 7.404-.771 11.08-1.342 4.448-.691 13.266-2.52 13.266-2.52 0 0-10.316.598-15.447.168-2.834-.238-6.526.63-8.396-1.512-.847-.97-.599-2.648-.166-3.861.932-2.614 3.716-4.121 5.539-6.213 7.146-8.202 21.16-24.85 21.16-24.85m-121.44 51.12c0 0 6.227 14.311 9.143 21.549 2.205 5.475 3.807 11.201 6.313 16.545.566 1.206 1.959 3.482 1.959 3.482 0 0-3.01-1.528-4.57-2.178-5.126-2.14-15.674-5.658-15.674-5.658 0 0 10.05 5.815 14.803 9.143 3.258 2.282 5.917 5.408 9.359 7.4 3.043 1.762 9.797 3.918 9.797 3.918 0 0-10.51-13.07-14.367-20.461-4.111-7.875-4.617-17.389-9.143-25.03-1.965-3.319-7.619-8.707-7.619-8.707m89.03 7.48l-.84 3.525 12.426-2.35-11.586-1.176m35.682 33.08c0 0-8.493 8.311-12.412 12.77-1.73 1.967-3.093 4.247-4.889 6.154-1.417 1.505-2.604 4.538-4.615 4.141-1.238-.244-1.982-3.456-2.596-5.336-.667-2.04-.602-4.26-1.146-6.336-.439-1.677-1.703-4.914-1.703-4.914 0 0 .085 4.202.271 6.293.427 4.773 1.865 9.453 1.941 14.244.032 2.027-.164 4.074-.629 6.05-.553 2.348-1.352 4.677-2.543 6.775-.967 1.704-1.709 4.49-3.666 4.596-1.743.094-2.46-2.476-3.688-3.717-1.711-1.73-5.127-5.197-5.127-5.197 0 0 1.913 3.616 2.633 5.525 1.376 3.649 3.195 7.353 3.193 11.252-.002 3.584-1.878 6.92-2.945 10.342-1.031 3.307.104 9.471-3.34 9.84-2.117.227-2.162-3.67-3.287-5.477-.966-1.551-2.973-4.604-2.973-4.604 0 0 1.292 6.555 2.467 9.666 1.299 3.44 3.99 6.293 5.02 9.824 1.159 3.983-.564 8.623 1.172 12.391.334.724 1.662 1.719 1.662 1.719 0 0-1.096-8.203-.051-12.1.857-3.193 3-5.93 5-8.563 1.276-1.679 4.408-4.539 4.408-4.539 0 0-3.719 2.095-5.516 3.246-1.206.772-2.23 3.059-3.527 2.451-1.857-.869-.831-4.098-.539-6.127.36-2.498 1.433-4.903 2.764-7.05 2.476-3.988 5.415-8.06 9.467-10.428 2.849-1.666 6.591-.977 9.654-2.207 1.621-.651 4.496-2.689 4.496-2.689 0 0-6.719 2.114-10.172 1.988-2.371-.087-5.744.219-6.867-1.871-.794-1.478.801-3.293 1.578-4.779 1.498-2.865 3.215-5.845 5.826-7.752 3.647-2.663 8.681-2.59 12.793-4.457 2.166-.983 6.201-3.527 6.201-3.527 0 0-7.472 1.949-11.281 2.545-2.141.335-6.479.574-6.479.574 0 0 1.472-4.407 2.586-6.43 2.558-4.644 6.287-8.542 9.303-12.902 2.591-3.746 7.553-11.387 7.553-11.387" fill="#a55d4f"/><path d="m68.15 147.19c-.458-.019-.919-.011-1.383.027-9.01.735-18.402 9.391-20.03 18.283-2.077 11.364 18.16 19.63 15.674 30.91-1.872 8.476-20.685 7.432-20.463 16.11.374 14.571 36.577 10.701 35.699 25.25-.496 8.231-21.18 3.528-21.768 11.754-1.226 17.284 42.01 13.584 41.795 30.91-.08 6.562-12.946 5.57-16.11 11.32-1.471 2.673-.298 6.095-.434 9.143-.311 6.965-3.927 14.63-.871 20.896 5.243 10.75 29.17 20.896 29.17 20.896 0 0 5.448-14.827 8.271-22.2 4.962-12.961 16.316-24.91 15.238-38.746-.379-4.863-2.586-11.836-7.4-12.625-4.365-.715-5.619 8.209-10.01 8.707-2.451.278-6.05-1.063-6.531-3.482-1.649-8.292 11.547-12.474 16.11-19.592 5.919-9.235 16.675-18.881 14.365-29.604-.954-4.432-5.978-7.943-10.447-8.707-6.563-1.122-13.86 11.515-18.721 6.965-8.514-7.97 11.774-21.993 10.01-33.521-1.136-7.44-5.2-17.488-12.625-18.721-5.927-.984-8.618 12.629-14.367 10.885-7.641-2.319-6.645-15.888-11.836-22.639-3.675-4.78-6.468-11.933-13.338-12.217zm650.56 0c-6.87.284-9.663 7.437-13.338 12.217-5.191 6.751-4.195 20.32-11.836 22.639-5.749 1.744-8.44-11.869-14.367-10.885-7.425 1.233-11.489 11.28-12.625 18.721-1.761 11.528 18.527 25.552 10.01 33.521-4.861 4.55-12.158-8.09-18.721-6.965-4.469.764-9.493 4.275-10.447 8.707-2.309 10.723 8.446 20.369 14.365 29.604 4.562 7.118 17.759 11.3 16.11 19.592-.481 2.42-4.08 3.76-6.531 3.482-4.395-.498-5.649-9.422-10.01-8.707-4.814.789-7.02 7.762-7.4 12.625-1.078 13.836 10.276 25.785 15.238 38.746 2.824 7.376 8.271 22.2 8.271 22.2 0 0 23.925-10.146 29.17-20.896 3.056-6.266-.56-13.932-.871-20.896-.136-3.048 1.037-6.469-.434-9.143-3.163-5.75-16.03-4.758-16.11-11.32-.21-17.326 43.02-13.626 41.795-30.91-.584-8.226-21.271-3.523-21.768-11.754-.878-14.549 35.33-10.679 35.699-25.25.223-8.678-18.591-7.633-20.463-16.11-2.491-11.28 17.751-19.546 15.674-30.91-1.625-8.892-11.02-17.548-20.03-18.283-.464-.038-.925-.046-1.383-.027z" fill="#ff0" stroke="#a55d4f" stroke-linejoin="round" stroke-width="3"/><path d="m65.88 165.68c0 0 7.07 13.377 10.293 20.22 4.723 10.03 10.982 19.657 13.234 30.512.299 1.44 1.065 3.399 0 4.412-1.778 1.691-4.935.057-7.352-.367-7.827-1.373-22.793-6.986-22.793-6.986 0 0 11.595 5.99 17.279 9.191 5.219 2.939 11.476 4.699 15.439 9.189 2.832 3.209 3.674 7.745 5.146 11.764.971 2.649 3.082 5.367 2.422 8.109-.315 1.309-1.521 2.47-2.789 2.92-5 1.774-10.589-.996-15.799-2.01-4.482-.874-13.244-3.502-13.244-3.502 0 0 9.311 4.477 14.12 6.346 4.28 1.662 9.239 1.805 13.08 4.314 2.761 1.802 5.138 4.405 6.617 7.352 3.643 7.26 4.271 15.788 4.777 23.895.275 4.396-.417 11.379-.943 15.898l-2.209 3.346 1.688.945-.004.029v-.025l5.066 2.836 11.09-30.822-13.11 19.857c.599-1.83 1.124-3.65 1.355-5.078.687-4.233.43-8.6 0-12.867-.677-6.719-3.972-13.1-4.04-19.852-.029-2.74.404-5.564 1.471-8.09 2.053-4.854 6.351-8.424 9.189-12.865 3.871-6.06 10.66-18.748 10.66-18.748 0 0-7.776 11.852-12.832 16.736-2.5 2.415-5.075 6.711-8.488 6.05-2-.385-2.468-3.288-3.309-5.146-1.838-4.064-3.289-8.424-3.676-12.867-.203-2.332.269-4.69.734-6.984 1.198-5.903 4.04-11.389 5.266-17.287 1.681-8.09 2.822-24.621 2.822-24.621 0 0-2.775 12.951-5.33 19.02-1.764 4.19-2.364 10.921-6.822 11.809-1.354.27-2.397-1.464-3.287-2.52-5.264-6.244-7.294-14.628-11.396-21.689-4.457-7.671-14.338-22.424-14.338-22.424m655.09 0c0 0-9.881 14.753-14.338 22.424-4.103 7.06-6.133 15.445-11.396 21.689-.89 1.055-1.933 2.789-3.287 2.52-4.459-.888-5.058-7.619-6.822-11.809-2.555-6.067-5.33-19.02-5.33-19.02 0 0 1.142 16.533 2.822 24.621 1.226 5.898 4.067 11.384 5.266 17.287.466 2.294.937 4.652.734 6.984-.386 4.444-1.837 8.803-3.676 12.867-.841 1.858-1.306 4.761-3.309 5.146-3.413.656-5.989-3.64-8.488-6.05-5.056-4.885-12.832-16.736-12.832-16.736 0 0 6.789 12.69 10.66 18.748 2.838 4.441 7.137 8.01 9.189 12.865 1.067 2.524 1.5 5.348 1.471 8.09-.071 6.753-3.366 13.13-4.04 19.852-.43 4.267-.687 8.634 0 12.867.232 1.428.757 3.248 1.355 5.078l-13.11-19.857 11.09 30.822 5.066-2.836v.025l-.004-.029 1.688-.945-2.209-3.346c-.526-4.52-1.218-11.503-.943-15.898.507-8.107 1.134-16.635 4.777-23.895 1.479-2.947 3.856-5.549 6.617-7.352 3.845-2.51 8.804-2.652 13.08-4.314 4.811-1.868 14.12-6.346 14.12-6.346 0 0-8.762 2.628-13.244 3.502-5.21 1.016-10.796 3.786-15.799 2.01-1.268-.45-2.474-1.611-2.789-2.92-.66-2.743 1.451-5.461 2.422-8.109 1.473-4.02 2.314-8.555 5.146-11.764 3.963-4.49 10.221-6.251 15.439-9.189 5.684-3.201 17.279-9.191 17.279-9.191 0 0-14.966 5.613-22.793 6.986-2.417.424-5.574 2.058-7.352.367-1.065-1.013-.299-2.972 0-4.412 2.253-10.855 8.512-20.482 13.234-30.512 3.222-6.842 10.293-20.22 10.293-20.22m-626.42 133.81l1.838 34.924h8.09l-9.926-34.924m597.74 0l-9.926 34.924h8.09l1.838-34.924" fill="#a55d4f"/><path d="m113.13 297.62c-.465.016-.923.08-1.371.197-6.49 1.693-10.417 9.554-12.16 16.03-1.844 6.849 5.996 14.886 2.611 21.12-1.425 2.624-5.694 2.091-8.05 3.92-5.576 4.32-11.09 9.567-13.717 16.11-2.739 6.813.887 14.981-1.307 21.988-3.124 9.977-15.942 16.331-16.328 26.779-.241 6.519 8.926 17.418 8.926 17.418 0 0 15.863-10.279 21.12-17.852 3.43-4.941 2.077-12.508 6.096-16.982 3.665-4.081 10.309-4.04 14.805-7.186 5.95-4.159 17.01-8 15.66-15.13-.914-4.819-12.723-.813-13.59-5.641-.648-3.608 5.517-4.844 8.06-7.488 4.795-4.992 11.04-9.301 13.51-15.768.695-1.82 1.133-4.178.123-5.844-1.349-2.226-4.398-3.649-6.994-3.469-3.594.25-5.45 7.04-8.928 6.098-2.224-.604-2.95-3.948-2.953-6.252-.006-4.282 4.904-7.382 5.455-11.629.514-3.958.328-8.651-2.15-11.779-2.01-2.54-5.554-4.753-8.809-4.641zm560.59 0c-3.254-.113-6.797 2.101-8.809 4.641-2.478 3.129-2.664 7.821-2.15 11.779.551 4.246 5.461 7.347 5.455 11.629-.003 2.304-.729 5.648-2.953 6.252-3.477.944-5.333-5.848-8.928-6.098-2.596-.181-5.645 1.243-6.994 3.469-1.01 1.666-.572 4.02.123 5.844 2.469 6.466 8.715 10.775 13.51 15.768 2.539 2.644 8.705 3.88 8.06 7.488-.867 4.828-12.676.822-13.59 5.641-1.353 7.132 9.71 10.974 15.66 15.13 4.496 3.143 11.139 3.105 14.805 7.186 4.02 4.474 2.666 12.04 6.096 16.982 5.257 7.572 21.12 17.852 21.12 17.852 0 0 9.167-10.899 8.926-17.418-.387-10.448-13.204-16.802-16.328-26.779-2.194-7.01 1.433-15.176-1.307-21.988-2.631-6.544-8.141-11.792-13.717-16.11-2.361-1.829-6.63-1.296-8.05-3.92-3.385-6.234 4.455-14.27 2.611-21.12-1.743-6.477-5.67-14.338-12.16-16.03-.448-.117-.906-.181-1.371-.197z" fill="#ff0" stroke="#a55d4f" stroke-linejoin="round" stroke-width="3"/><path d="m111.19 312.55c0 0-.715 10.455-1.402 15.646-.829 6.258-.869 12.818-3.279 18.652-.621 1.503-1.167 3.96-2.793 4-.887.023-1-1.48-1.635-2.104-2.02-1.992-4.086-4.233-6.771-5.137-1.181-.397-3.736 0-3.736 0 0 0 5.134 4.783 7.01 7.707 1.505 2.35 3.083 4.921 3.27 7.705.334 4.993-.235 11.151-3.971 14.48-1.529 1.362-4.02.905-6.072.934-2.51.036-5.478-2.457-7.473-.934-.875.668-.916 2.265-.467 3.27 1.26 2.818 5.815 2.697 7.707 5.137 1.01 1.303 1.768 3.03 1.635 4.672-.566 6.979-14.12 12.76-10.04 18.449 1.059 1.477 4 .259 5.371-.936 2.895-2.524 2.072-7.411 3.504-10.975 1.584-3.941 3.1-8.01 5.605-11.443 1.527-2.089 3.501-3.862 5.604-5.371 3.281-2.355 7.367-3.387 10.742-5.605 2.682-1.763 7.475-6.072 7.475-6.072 0 0-4.129 1.928-6.195 2.885-3.148 1.458-6.02 3.824-9.453 4.355-1.24.192-2.959.519-3.736-.467-.437-.553.108-1.408.234-2.102.564-3.083 1.074-6.241 2.336-9.109.861-1.957 2.144-3.721 3.502-5.371 5.208-6.33 12.341-10.883 17.627-17.15 1.375-1.63 3.625-5.27 3.625-5.27 0 0-3.602 3.15-5.473 4.641-2.926 2.331-5.994 4.477-8.986 6.721-1.487 1.115-2.818 4.226-4.457 3.35-1.751-.937.174-3.969.334-5.949.299-3.701 1.058-7.367 1.168-11.08.174-5.849-.801-17.535-.801-17.535m564.48 0c0 0-.974 11.686-.801 17.535.11 3.712.869 7.377 1.168 11.08.16 1.98 2.085 5.01.334 5.949-1.639.877-2.97-2.235-4.457-3.35-2.993-2.244-6.06-4.39-8.986-6.721-1.871-1.49-5.473-4.641-5.473-4.641 0 0 2.25 3.64 3.625 5.27 5.286 6.265 12.419 10.819 17.627 17.15 1.358 1.651 2.641 3.415 3.502 5.371 1.262 2.869 1.772 6.03 2.336 9.109.127.693.671 1.548.234 2.102-.777.986-2.496.659-3.736.467-3.428-.531-6.305-2.897-9.453-4.355-2.067-.957-6.195-2.885-6.195-2.885 0 0 4.793 4.309 7.475 6.072 3.375 2.219 7.461 3.25 10.742 5.605 2.102 1.509 4.077 3.282 5.604 5.371 2.506 3.429 4.02 7.502 5.605 11.443 1.432 3.563.609 8.451 3.504 10.975 1.37 1.194 4.312 2.412 5.371.936 4.081-5.689-9.477-11.47-10.04-18.449-.133-1.644.624-3.369 1.635-4.672 1.892-2.44 6.447-2.318 7.707-5.137.449-1 .408-2.601-.467-3.27-1.995-1.524-4.962.969-7.473.934-2.048-.029-4.543.429-6.072-.934-3.736-3.33-4.305-9.487-3.971-14.48.186-2.784 1.765-5.355 3.27-7.705 1.872-2.924 7.01-7.707 7.01-7.707 0 0-2.556-.397-3.736 0-2.686.903-4.756 3.145-6.771 5.137-.631.624-.748 2.126-1.635 2.104-1.626-.042-2.172-2.499-2.793-4-2.41-5.835-2.45-12.394-3.279-18.652-.688-5.191-1.402-15.646-1.402-15.646" fill="#a55d4f"/><path d="m60.22 261.85c-2.224-.044-4.414.353-6.277 1.238-5.279 2.507-8.602 9.253-8.93 15.09-.435 7.751 11.978 13.872 9.545 21.244-2.434 7.374-19.412 3.68-20.322 11.393-1.294 10.964 26.33 11.621 24.324 22.477-1.205 6.522-17.246.873-18.473 7.391-2.444 12.988 31.32 14.1 28.941 27.1-1.019 5.568-13.481 1.258-15.703 6.465-3.202 7.503 9.165 14.631 8.93 22.785-.369 12.761-16.01 34.793-16.01 34.793 0 0 22.276-23.462 32.02-36.33 6.05-7.989 16.668-15.233 16.318-25.25-.107-3.077-2.474-7.137-5.543-7.391-3.111-.257-3.685 6.917-6.773 6.467-1.638-.239-2.575-2.659-2.463-4.311.951-13.947 25.906-19.279 25.555-33.25-.092-3.639-3.5-7.654-7.08-8.313-3.569-.656-5.929 5.532-9.545 5.234-1.821-.15-3.879-1.613-4.311-3.389-2.4-9.863 13.786-17.627 12.623-27.711-.52-4.507-3.817-10.164-8.313-10.775-4.068-.553-5.914 8.545-9.854 7.389-4.518-1.326-3.553-8.734-4.926-13.238-1.539-5.05.193-11.828-3.695-15.396-2.533-2.325-6.334-3.627-10.04-3.701zm666.41 0c-3.707.074-7.508 1.376-10.04 3.701-3.888 3.568-2.157 10.348-3.695 15.396-1.373 4.504-.408 11.912-4.926 13.238-3.939 1.156-5.786-7.942-9.854-7.389-4.495.611-7.793 6.268-8.313 10.775-1.163 10.08 15.02 17.848 12.623 27.711-.432 1.776-2.489 3.239-4.311 3.389-3.616.298-5.976-5.89-9.545-5.234-3.58.658-6.989 4.673-7.08 8.313-.352 13.975 24.604 19.307 25.555 33.25.113 1.651-.825 4.072-2.463 4.311-3.089.45-3.663-6.724-6.773-6.467-3.069.254-5.436 4.313-5.543 7.391-.349 10.01 10.269 17.259 16.318 25.25 9.745 12.87 32.02 36.33 32.02 36.33 0 0-15.641-22.03-16.01-34.793-.236-8.154 12.13-15.282 8.93-22.785-2.222-5.206-14.685-.897-15.703-6.465-2.378-13 31.385-14.11 28.941-27.1-1.226-6.518-17.268-.869-18.473-7.391-2.01-10.856 25.618-11.513 24.324-22.477-.91-7.712-17.888-4.02-20.322-11.393-2.433-7.372 9.98-13.493 9.545-21.244-.328-5.835-3.651-12.581-8.93-15.09-1.864-.885-4.053-1.283-6.277-1.238z" fill="#ff0" stroke="#a55d4f" stroke-width="3"/><path d="m58.956 275.08c-.044-.015-.068.015-.068.094 0 1.265 5.02 15.292 6.959 23.09 1.633 6.558 2.95 13.203 3.934 19.889.249 1.691 1.754 3.946.496 5.104-.868.798-2.367-.246-3.48-.633-6.996-2.431-19.613-10.439-19.613-10.439 0 0 6.238 5.589 9.49 8.225 3.802 3.08 8.491 5.168 11.705 8.857 1.985 2.278 3.446 5.05 4.43 7.91.903 2.623 1.054 5.459 1.266 8.225.121 1.577 1.164 3.675 0 4.746-.934.86-2.565-.008-3.797-.316-4.123-1.034-7.775-3.441-11.705-5.063-2.933-1.21-8.857-3.48-8.857-3.48 0 0 7.6 5.998 11.705 8.543 2.525 1.566 5.757 2.062 7.908 4.111 2.121 2.02 3.631 4.775 4.43 7.594 1.207 4.263.422 8.858.316 13.287-.07 2.959.686 6.207-.633 8.857-.499 1-1.411 2.242-2.531 2.215-2.948-.071-4.45-3.902-6.369-6.141-1.057-1.233-2.805-3.984-2.805-3.984 0 0 1.903 5.489 2.852 8.234 1.055 3.055 3.142 5.934 3.158 9.166.017 3.335-1.736 6.476-3.162 9.49-.881 1.863-1.83 4.049-2.834 6.229 4.047-5.537 8.786-12.01 12.01-16.352 4.71-6.354 14.236-18.98 14.236-18.98 0 0-3.652 2.482-5.344 3.895-2.01 1.677-3.251 6.376-5.686 5.416-1.91-.753-.409-4.096-.359-6.148.168-6.892-.293-14.14 2.213-20.563 2.198-5.632 7.372-9.593 10.787-14.582 2.108-3.079 5.98-9.461 5.98-9.461 0 0-7.721 8.04-12.338 11.07-1.261.83-2.774 2.595-4.113 1.898-1.046-.544-.405-2.324-.633-3.48-.687-3.49-2.327-6.884-2.213-10.439.088-2.736 1.309-5.324 2.213-7.908 1.967-5.62 4.737-10.928 6.961-16.451 1.433-3.561 4.113-10.756 4.113-10.756 0 0-5.962 9.394-9.18 13.93-1.609 2.268-2.308 7.05-5.057 6.633-2.405-.368-1.721-4.552-2.486-6.861-2.088-6.304-3.215-12.938-5.74-19.08-2.085-5.072-7.489-15.369-8.156-15.594m2.793 133.81c-4.363 5.969-7.924 10.855-7.924 10.855 3.044-1.015 5.648-5.917 7.924-10.855m666.14-133.81c-.667.225-6.071 10.522-8.156 15.594-2.525 6.142-3.652 12.776-5.74 19.08-.765 2.309-.082 6.493-2.486 6.861-2.748.421-3.448-4.365-5.057-6.633-3.217-4.535-9.18-13.93-9.18-13.93 0 0 2.68 7.195 4.113 10.756 2.224 5.523 4.994 10.831 6.961 16.451.904 2.584 2.125 5.172 2.213 7.908.114 3.556-1.526 6.949-2.213 10.439-.228 1.157.413 2.937-.633 3.48-1.34.696-2.852-1.069-4.113-1.898-4.616-3.037-12.338-11.07-12.338-11.07 0 0 3.873 6.382 5.98 9.461 3.415 4.989 8.589 8.95 10.787 14.582 2.506 6.422 2.045 13.671 2.213 20.563.05 2.052 1.55 5.395-.359 6.148-2.435.96-3.676-3.739-5.686-5.416-1.692-1.412-5.344-3.895-5.344-3.895 0 0 9.527 12.627 14.236 18.98 3.221 4.346 7.961 10.815 12.01 16.352-1-2.18-1.953-4.366-2.834-6.229-1.426-3.01-3.179-6.156-3.162-9.49.016-3.232 2.103-6.111 3.158-9.166.948-2.745 2.852-8.234 2.852-8.234 0 0-1.748 2.751-2.805 3.984-1.919 2.239-3.421 6.069-6.369 6.141-1.121.027-2.032-1.211-2.531-2.215-1.318-2.65-.563-5.898-.633-8.857-.105-4.429-.891-9.02.316-13.287.798-2.819 2.308-5.573 4.43-7.594 2.152-2.049 5.383-2.546 7.908-4.111 4.105-2.545 11.705-8.543 11.705-8.543 0 0-5.925 2.271-8.857 3.48-3.93 1.621-7.582 4.03-11.705 5.063-1.232.308-2.862 1.176-3.797.316-1.164-1.071-.121-3.169 0-4.746.212-2.766.363-5.602 1.266-8.225.984-2.857 2.445-5.632 4.43-7.91 3.214-3.689 7.903-5.777 11.705-8.857 3.253-2.635 9.49-8.225 9.49-8.225 0 0-12.617 8.01-19.613 10.439-1.114.387-2.613 1.431-3.48.633-1.258-1.157.247-3.413.496-5.104.983-6.686 2.301-13.331 3.934-19.889 1.942-7.802 6.959-21.828 6.959-23.09 0-.079-.024-.109-.068-.094m-2.793 133.81c2.275 4.938 4.88 9.841 7.924 10.855 0 0-3.561-4.886-7.924-10.855" fill="#a55d4f"/><path d="m344.5 2.722v67.06l10.449 13.281h-2.83l-18.287-9.58-2.178-30.04-38.32-30.48-84.91 19.594 15.676 63.57 34.398 11.758 12.193 50.51v4.791h113.53 18.408 113.53v-4.791l12.191-50.51 34.4-11.758 15.676-63.57-84.91-19.594-38.32 30.48-2.178 30.04-18.289 9.58h-2.83l10.451-13.281v-67.06h-39.723-18.408-39.723" fill="#3f1cad"/><path d="m350.74 8.217v26.08h25.693v-26.08h-25.693m29.469.529v26.08h55.91v-26.08h-55.91m-87.05 10.141l-23.256 4.943 2.906 26.16 22.529-4.65-2.18-26.453m200.54 0l-2.18 26.453 22.529 4.65 2.906-26.16-23.256-4.943m-196.04 3.125l1.164 23.547 29.939 20.783-.145-19.19-30.959-25.14m191.54 0l-30.959 25.14-.145 19.19 29.939-20.783 1.164-23.547m-222.49 2.98l-52.904 11.627 7.412 25.436 49.12-11.338-3.633-25.725m253.45 0l-3.631 25.725 49.12 11.338 7.412-25.436-52.906-11.627m-109.73 12.605v26.08h25.693v-26.08h-25.693m-59.686.529v26.08h55.908v-26.08h-55.908m-55.26 10.557l-43.926 10.174 4.648 26.598 42.04-10.9-2.762-25.871m195.89 0l-2.762 25.871 42.04 10.9 4.654-26.598-43.93-10.174m-191.68 1.453l1.6 23.691 27.906 13.08-.146-17.441-29.359-19.33m187.46 0l-29.359 19.33-.146 17.441 27.906-13.08 1.6-23.691m-238.77 9.447l-26.309 5.668 5.959 27.18 25-6.25-4.65-26.598m290.07 0l-4.65 26.598 25 6.25 5.961-27.18-26.311-5.668m-186.57 9.266l11.24 15.914h15.715 4.674 16.811l4.939-15.797-16.467.063-20.625-.061-16.287-.119zm83.68 0l-27.05.199-4.574 15.715h20.389l11.24-15.914m-133.37 7.594l-38.08 10.32 20.93 10.463 36.48-9.01-19.33-11.773m182.44 0l-19.33 11.773 36.48 9.01 20.93-10.463-38.08-10.32m-228.37 11.191l-21.656 6.977 27.615 9.156 15.406-5.812-21.365-10.32m274.3 0l-21.365 10.32 15.406 5.812 27.615-9.156-21.656-6.977m-151.17.072c-1.679-.004-3.278.008-4.557.041-10.393.272-20.788.818-31.13 1.85-5.98.596-17.854 2.504-17.854 2.504l3.482 25.691c0 0 14.568-1.795 21.881-2.395 9.96-.816 19.944-1.543 29.938-1.635 3.01-.028 9.04-.072 9.04-.072v-25.836c0 0-5.757-.137-10.793-.148m28.04 0c-5.04.012-10.793.148-10.793.148v25.836c0 0 6.02.045 9.04.072 9.993.092 19.975.819 29.936 1.635 7.313.599 21.881 2.395 21.881 2.395l3.484-25.691c0 0-11.874-1.908-17.854-2.504-10.345-1.031-20.74-1.578-31.13-1.85-1.279-.033-2.878-.045-4.557-.041m-85.17 5.592c0 0-14.277 2.044-21.338 3.484-7.761 1.583-15.426 3.614-23.08 5.66-5.04 1.347-15.02 4.354-15.02 4.354l6.531 23.949c0 0 10.816-3.714 16.328-5.225 6.893-1.889 13.893-3.389 20.902-4.789 5.92-1.183 17.852-3.049 17.852-3.049l-2.176-24.385m142.3 0l-2.178 24.385c0 0 11.933 1.866 17.854 3.049 7.01 1.4 14.01 2.9 20.9 4.789 5.512 1.51 16.33 5.225 16.33 5.225l6.531-23.949c0 0-9.987-3.01-15.02-4.354-7.652-2.046-15.317-4.077-23.08-5.66-7.06-1.44-21.336-3.484-21.336-3.484m-71.15 24.21c-5.659 0-11.318.074-16.975.223-5.072.133-10.1.396-15.201.799l1.756 19.09a79.13068 13.855566 0 0 1 30.41992 -1.07812 79.13068 13.855566 0 0 1 30.42188 1.06836l1.754-19.08c-4.964-.346-10.129-.666-15.201-.799-5.656-.149-11.315-.223-16.975-.223m-35.871 1.484c0 0-10.89.575-16.318 1.078-8.182.759-16.358 1.664-24.479 2.924-5.937.922-17.705 3.387-17.705 3.387l3.422 20.15h15.02a79.13068 13.855566 0 0 1 41.60157 -8.60742l-1.537-18.936m71.74 0l-1.537 18.941a79.13068 13.855566 0 0 1 41.61524 8.60156h15l3.422-20.15c0 0-11.768-2.465-17.705-3.387-8.12-1.26-16.296-2.165-24.479-2.924-5.428-.503-16.318-1.078-16.318-1.078m-134.55 8.621c0 0-8.465 1.864-12.623 3.078-4.424 1.291-13.09 4.465-13.09 4.465l1.652 11.379h27.01l-2.951-18.922m197.37 0l-2.951 18.922h27.01l1.652-11.379c0 0-8.662-3.173-13.09-4.465-4.158-1.214-12.623-3.078-12.623-3.078" fill="#fbfd5a"/><g stroke="#a55d4f" stroke-width="3"><path d="m152.8 362.89c0 0-42.32 19.505-62.16 31.633-15.349 9.385-43.711 31.66-43.711 31.66 0 0-9.847 33.965-12.628 51.38-3.03 18.974-4.612 38.27-4.354 57.48.209 15.611 4.79 46.592 4.79 46.592l21.336 3.919 1.742-6.967c0 0-4.308-14.178-3.484-21.336.868-7.537 5.074-14.366 8.681-21.04 8.08-14.953 17.754-29.15 28.767-42.1 10.644-12.511 22.15-24.683 35.706-33.964 9.268-6.347 30.481-14.369 30.481-14.369z" fill="#3f59d2"/><path d="m156.19 417.28c-7.298.713-15.565 1.361-22.771 4.111-21.582 8.236-42.04 20.633-59.06 36.25-18.235 16.735-44.12 59.723-44.12 59.723 0 0-.543 11.787-.289 17.674.672 15.598 4.789 46.592 4.789 46.592l21.336 3.92 1.742-6.967c0 0-4.309-14.179-3.484-21.338.868-7.537 5.075-14.366 8.682-21.04 8.08-14.953 17.755-29.15 28.768-42.1 10.644-12.511 22.15-24.681 35.705-33.963 9.268-6.347 30.48-14.369 30.48-14.369z" fill="#fbfd5a"/><path d="m634.06 362.89c0 0 42.32 19.505 62.16 31.633 15.349 9.385 43.711 31.66 43.711 31.66 0 0 9.847 33.965 12.628 51.38 3.03 18.974 4.612 38.27 4.354 57.48-.209 15.611-4.79 46.592-4.79 46.592l-21.336 3.919-1.742-6.967c0 0 4.308-14.178 3.484-21.336-.868-7.537-5.074-14.366-8.681-21.04-8.08-14.953-17.754-29.15-28.767-42.1-10.644-12.511-22.15-24.683-35.706-33.964-9.268-6.347-30.481-14.369-30.481-14.369z" fill="#ff2935"/><path d="m630.67 417.28c7.298.713 15.565 1.361 22.771 4.111 21.582 8.236 42.04 20.633 59.06 36.25 18.235 16.735 44.12 59.723 44.12 59.723 0 0 .543 11.787.289 17.674-.672 15.598-4.789 46.592-4.789 46.592l-21.336 3.92-1.742-6.967c0 0 4.309-14.179 3.484-21.338-.868-7.537-5.075-14.366-8.682-21.04-8.08-14.953-17.755-29.15-28.768-42.1-10.644-12.511-22.15-24.681-35.705-33.963-9.268-6.347-30.48-14.369-30.48-14.369z" fill="#3f59d2"/><g fill="#ff0"><path d="m56.17 525.26c-7.619-.414-15.793 7.414-17.402 14.873-2.057 9.531 13.889 16.845 12.422 26.484-.446 2.933-3.091 6.01-6 6.568-3.08.591-5.369-4.596-8.467-4.105-3.656.58-7.385 4.048-8.01 7.697-1.089 6.401 4.59 12.43 8.785 17.387 3.953 4.671 10.335 6.68 14.791 10.873 2.617 2.463 7.928 4.839 6.902 8.283-1.028 3.453-7.427 1.04-10.336 3.166-2.826 2.065-5.718 5.14-5.979 8.631-.518 6.958 5.859 12.679 9.236 18.783 3.213 5.807 10.469 16.934 10.469 16.934l35.1-.307c0 0 8.31-31.448 7.391-47.42-.465-8.08-1.451-17.05-6.467-23.4-5.01-6.344-15.525-5.985-21.244-11.699-2.405-2.403-4.138-5.623-4.926-8.93-1.977-8.292 3.92-17.577.922-25.557-2.941-7.826-8.84-17.81-17.188-18.264z"/><path d="m730.69 525.26c-8.348.453-14.247 10.438-17.188 18.264-2.999 7.979 2.9 17.265.924 25.557-.788 3.307-2.523 6.527-4.928 8.93-5.719 5.715-16.233 5.355-21.244 11.699-5.02 6.351-6 15.321-6.467 23.4-.919 15.97 7.391 47.42 7.391 47.42l35.1.307c0 0 7.256-11.127 10.469-16.934 3.378-6.105 9.755-11.826 9.236-18.783-.26-3.49-3.153-6.566-5.979-8.631-2.909-2.126-9.308.287-10.336-3.166-1.026-3.445 4.285-5.82 6.902-8.283 4.456-4.193 10.838-6.202 14.791-10.873 4.195-4.957 9.875-10.985 8.785-17.387-.621-3.649-4.35-7.118-8.01-7.697-3.098-.491-5.386 4.696-8.467 4.105-2.913-.558-5.558-3.636-6-6.568-1.467-9.64 14.479-16.953 12.422-26.484-1.61-7.459-9.783-15.287-17.402-14.873z"/><path d="m143.59 532.5c-4.571.112-7.324 5.857-9.545 9.854-2.056 3.699-3.123 8.08-3.078 12.314.05 4.681.822 9.854 3.695 13.549 1.242 1.596 2.752 3.27 4.432 4.76-1.694.954-3.376 1.902-5.05 2.629-5.725 2.489-12.994 3.543-16.625 8.621-1.207 1.689-1.224 4.104-.924 6.158.803 5.497 4.283 10.288 7.08 15.09 1.409 2.417 2.942 4.764 4.559 7.05-1.38 1.737-2.579 3.699-3.693 5.473-1.636 2.604-3.108 5.634-3.047 8.709.067 3.355 1.5 6.829 3.701 9.361 2.025 2.33 5.05 3.855 8.05 4.572 2.968.709 6.705 1.398 9.145-.436 2.33-1.751 2.352-5.398 2.83-8.273.083-.499.161-1.02.246-1.527 1.755-1.897 6.156-6.579 8.996-8.922 3.535-2.917 8.601-4.062 11.393-7.697 3.44-4.479 5.625-10.363 5.541-16.01-.082-5.489-2.867-10.787-5.85-15.396-2.349-3.63-4.877-7.922-8.232-10.676 1.024-2.01 1.714-4.249 2.074-6.258 1.457-8.135-1.946-16.905-6.158-24.02-2.221-3.748-5.189-9.04-9.545-8.93z"/><path d="m643.26 532.5c-4.355-.107-7.324 5.181-9.545 8.93-4.213 7.11-7.616 15.881-6.158 24.02.36 2.01 1.05 4.249 2.074 6.258-3.355 2.753-5.884 7.05-8.232 10.676-2.982 4.609-5.768 9.907-5.85 15.396-.084 5.647 2.101 11.531 5.541 16.01 2.791 3.635 7.857 4.781 11.393 7.697 2.84 2.343 7.241 7.02 8.996 8.922.085.508.163 1.028.246 1.527.478 2.875.5 6.523 2.83 8.273 2.44 1.833 6.176 1.144 9.145.436 3-.717 6.03-2.242 8.05-4.572 2.201-2.533 3.634-6.01 3.701-9.361.061-3.075-1.41-6.105-3.047-8.709-1.114-1.773-2.313-3.736-3.693-5.473 1.617-2.289 3.15-4.635 4.559-7.05 2.797-4.8 6.277-9.591 7.08-15.09.3-2.054.283-4.47-.924-6.158-3.631-5.079-10.9-6.132-16.625-8.621-1.673-.727-3.355-1.675-5.05-2.629 1.679-1.49 3.19-3.163 4.432-4.76 2.874-3.695 3.646-8.868 3.695-13.549.045-4.231-1.022-8.616-3.078-12.314-2.221-3.997-4.974-9.741-9.545-9.854zm-563.34 202.39c-1.548.026-3.074.271-4.572.826-4.165 1.544-8.912 5.728-8.621 10.16.481 7.323 9.203 12.982 16.318 14.779 6.251 1.579 12.406-5.567 18.783-4.617 4.962.739 9.332 4.203 12.932 7.697 1.92 1.864 2.52 4.784 4.311 6.773 4.299 4.778 8.836 10.506 15.09 12.01 6.01 1.444 14.292 1.119 18.17-3.695 4.312-5.358 2.069-14.175-.307-20.629-2.115-5.747-6.31-11.259-11.701-14.164-11.724-6.317-26.518-2.549-39.719-4.311-6.863-.916-13.967-4.939-20.676-4.828zm627 0c-6.708-.111-13.813 3.912-20.676 4.828-13.2 1.762-27.995-2.01-39.719 4.311-5.391 2.905-9.586 8.417-11.701 14.164-2.376 6.454-4.618 15.271-.307 20.629 3.874 4.814 12.158 5.139 18.17 3.695 6.25-1.502 10.787-7.23 15.09-12.01 1.79-1.99 2.39-4.909 4.311-6.773 3.6-3.494 7.97-6.958 12.932-7.697 6.377-.95 12.532 6.196 18.783 4.617 7.115-1.797 15.837-7.456 16.318-14.779.291-4.432-4.456-8.616-8.621-10.16-1.498-.555-3.02-.8-4.572-.826z"/><path d="m175.49 782.86c-4.081.051-8.17.986-11.543 2.998-3.043 1.815-4.662 5.468-6.096 8.709-.933 2.109 0 5.03-1.523 6.75-.869.978-2.403 1.469-3.701 1.307-3.895-.487-6.431-4.514-9.797-6.533-3.814-2.289-7.33-5.881-11.758-6.313-2.947-.287-6.29.629-8.49 2.611-2.754 2.482-2.649 6.943-4.355 10.234-.825 1.591-1.272 3.687-2.83 4.572-3.787 2.151-8.723.588-13.06.217-4.269-.365-8.374-2.895-12.629-2.395-2.291.269-5.094.872-6.313 2.83-1.075 1.726-.791 4.33.217 6.096 1.068 1.871 3.632 2.319 5.443 3.484 2.471 1.59 5.602 2.466 7.402 4.789.562.726 1.105 1.726.871 2.613-.498 1.888-2.668 2.935-4.355 3.918-3.173 1.848-7.18 1.812-10.449 3.484-1.99 1.018-3.972 2.235-5.443 3.918-1.624 1.858-3.313 4.072-3.484 6.533-.22 3.161 1.054 6.657 3.266 8.926 2.07 2.123 5.319 3.02 8.273 3.266 3.346.275 6.93-.456 9.848-2.117 5.547-3.159 6.72-15.1 13.02-14.05 2.836.475 1.694 5.641 3.482 7.893 1.806 2.273 4.065 5.134 6.967 5.225 3.038.094 5.793-2.578 7.619-5.01 3.103-4.129 2.355-10.14 4.572-14.805 1.01-2.127 1.57-6.04 3.92-5.877 3.241.222 2.526 6.01 4.25 8.768 1.212 1.936 2.082 4.635 4.24 5.383 2.046.708 4.656-.132 6.314-1.523 2.262-1.898 2.73-5.28 3.541-8.119 1.343-4.704 1.19-9.72 2.119-14.523.365-1.886.074-4.17 1.354-5.604.914-1.024 2.506-1.584 3.869-1.414 1.308.163 2.467 1.181 3.268 2.229 1.351 1.769.562 4.781 2.178 6.313 1.15 1.09 3.064 1.794 4.572 1.307 2.901-.938 3.435-5.101 5.66-7.186 4.113-3.854 8.425-8.393 13.936-9.578 5.191-1.116 10.428 2.02 15.676 2.83 3.399.523 10.232 1.307 10.232 1.307 0 0-20.12-19.438-33.09-22.643-2.287-.565-4.733-.853-7.182-.822z"/></g></g><g fill="#a55d4f"><path d="m55.927 544.77c0 0 2.556 17.371 4.373 25.955 1.541 7.28 5.868 14.193 5.531 21.627-.035.771-.187 1.684-.775 2.184-.564.479-1.453.498-2.186.393-2.087-.301-3.856-1.735-5.658-2.83-5.614-3.409-15.947-11.574-15.947-11.574 0 0 11.739 11.945 18.01 17.49 6.348 5.617 19.805 15.947 19.805 15.947l1.545-4.629c0 0-1.411-1.235-1.801-2.059-.669-1.414-.932-3.073-.771-4.629.17-1.647 1.302-3.052 1.801-4.631 1.515-4.799 3.6-14.662 3.6-14.662 0 0-3.394 9.236-6.674 12.727-.965 1.027-2.225 2.425-3.615 2.193-1.653-.275-2.427-2.384-3.221-3.859-2.674-4.974-3.3-10.802-4.855-16.23-3.181-11.1-9.156-33.412-9.156-33.412m40.2 202.23c-6.55.019-14.04.283-14.04.283 0 0 11.161 1.601 16.738 2.42 4.505.662 8.977 1.603 13.512 2.02 3.918.358 8.622-1.922 11.797.402.892.653 1.264 2.03 1.109 3.125-.267 1.884-2.151 3.144-3.328 4.639-1.209 1.535-3.832 4.438-3.832 4.438 0 0 5.685-3.339 8.369-5.244 1.755-1.246 3.954-2.177 5.04-4.03.621-1.058 1.14-2.526.604-3.629-.703-1.448-2.687-1.879-4.234-2.32-2.946-.84-6.121-.281-9.176-.504-5.554-.405-11.07-1.287-16.637-1.512-1.662-.067-3.74-.088-5.924-.082m594.59 0c-2.183-.006-4.261.015-5.924.082-5.564.224-11.08 1.107-16.637 1.512-3.055.223-6.23-.337-9.176.504-1.548.442-3.531.873-4.234 2.32-.536 1.103-.017 2.571.604 3.629 1.089 1.856 3.288 2.788 5.04 4.03 2.685 1.905 8.369 5.244 8.369 5.244 0 0-2.623-2.903-3.832-4.438-1.178-1.495-3.061-2.755-3.328-4.639-.155-1.095.217-2.472 1.109-3.125 3.175-2.324 7.879-.044 11.797-.402 4.535-.415 9.01-1.356 13.512-2.02 5.577-.819 16.738-2.42 16.738-2.42 0 0-7.491-.264-14.04-.283"/><path d="m730.93 544.76c0 0-5.975 22.311-9.156 33.412-1.556 5.429-2.182 11.256-4.855 16.23-.793 1.476-1.568 3.584-3.221 3.859-1.39.231-2.65-1.166-3.615-2.193-3.28-3.491-6.674-12.727-6.674-12.727 0 0 2.084 9.863 3.6 14.662.499 1.579 1.631 2.984 1.801 4.631.161 1.556-.102 3.215-.771 4.629-.39.824-1.801 2.059-1.801 2.059l1.545 4.629c0 0 13.457-10.33 19.805-15.947 6.266-5.545 18.01-17.49 18.01-17.49 0 0-10.333 8.165-15.947 11.574-1.803 1.095-3.571 2.53-5.658 2.83-.732.105-1.621.086-2.186-.393-.589-.5-.74-1.412-.775-2.184-.337-7.434 3.99-14.347 5.531-21.627 1.817-8.584 4.373-25.955 4.373-25.955"/><path d="m153.83 580.76c0 0-3.778 2.451-5.225 4.137-2.772 3.231-4.626 7.195-6.314 11.1-.783 1.812-.11 4.551-1.742 5.662-.782.533-2.02.264-2.83-.219-1.715-1.016-2.282-3.275-3.266-5.01-1.714-3.02-4.572-9.361-4.572-9.361l-5.879-1.742c0 0 7.141 11.659 10.451 17.637 1.226 2.215 2.847 4.297 3.482 6.748 1.785 6.888.654 21.338.654 21.338 0 0 1.206-8.226 2.395-12.193.495-1.652.685-3.627 1.959-4.789 2.02-1.841 5.11-2.253 7.838-2.396 2.288-.121 4.476 1.021 6.75 1.307 1.226.154 3.701.219 3.701.219v-5.66c0 0-5.96.245-8.926 0-2.2-.182-4.512-.204-6.533-1.09-.758-.332-1.595-.78-1.959-1.523-.415-.848-.246-1.919 0-2.83.94-3.485 3.044-6.666 5.443-9.363.965-1.085 2.761-1.353 3.484-2.611 1.565-2.724 1.088-9.363 1.088-9.363"/><path d="m633.03 580.76c0 0-.477 6.639 1.088 9.363.723 1.259 2.52 1.527 3.484 2.611 2.399 2.697 4.504 5.878 5.443 9.363.246.911.415 1.983 0 2.83-.364.743-1.201 1.191-1.959 1.523-2.02.886-4.333.908-6.533 1.09-2.965.245-8.926 0-8.926 0v5.66c0 0 2.475-.065 3.701-.219 2.274-.286 4.462-1.427 6.75-1.307 2.728.144 5.82.555 7.838 2.396 1.274 1.163 1.464 3.137 1.959 4.789 1.189 3.967 2.395 12.193 2.395 12.193 0 0-1.13-14.45.654-21.338.635-2.451 2.256-4.533 3.482-6.748 3.31-5.978 10.451-17.637 10.451-17.637l-5.879 1.742c0 0-2.858 6.341-4.572 9.361-.983 1.733-1.551 3.992-3.266 5.01-.814.482-2.048.751-2.83.219-1.632-1.111-.959-3.85-1.742-5.662-1.688-3.909-3.542-7.872-6.314-11.1-1.447-1.686-5.225-4.137-5.225-4.137"/><path d="m49.24 629.64l38.07 5.4-5.66-5.4h-32.408"/><path d="m705.21 629.64l-5.66 5.4 38.07-5.4h-32.408"/></g><path d="m611.37 782.86c-2.449-.031-4.894.255-7.182.82-12.976 3.205-33.09 22.645-33.09 22.645 0 0 6.834-.783 10.232-1.307 5.248-.808 10.485-3.946 15.676-2.83 5.51 1.185 9.823 5.724 13.936 9.578 2.225 2.085 2.759 6.248 5.66 7.186 1.508.487 3.422-.216 4.572-1.307 1.616-1.531.826-4.545 2.178-6.314.8-1.048 1.96-2.064 3.268-2.227 1.363-.17 2.955.39 3.869 1.414 1.28 1.433.989 3.717 1.354 5.604.929 4.803.776 9.819 2.119 14.523.811 2.839 1.279 6.221 3.541 8.119 1.658 1.392 4.269 2.232 6.314 1.523 2.158-.747 3.03-3.447 4.24-5.383 1.724-2.753 1.01-8.546 4.25-8.768 2.35-.161 2.909 3.75 3.92 5.877 2.218 4.665 1.469 10.676 4.572 14.805 1.826 2.43 4.581 5.102 7.619 5.01 2.902-.09 5.161-2.952 6.967-5.225 1.789-2.251.647-7.418 3.482-7.893 6.296-1.054 7.468 10.89 13.02 14.05 2.918 1.661 6.502 2.393 9.848 2.117 2.955-.243 6.204-1.143 8.273-3.266 2.212-2.268 3.486-5.767 3.266-8.928-.172-2.462-1.86-4.674-3.484-6.531-1.471-1.683-3.453-2.9-5.443-3.918-3.269-1.672-7.276-1.637-10.449-3.484-1.688-.983-3.857-2.03-4.355-3.918-.234-.888.309-1.888.871-2.613 1.8-2.323 4.931-3.199 7.402-4.789 1.811-1.166 4.376-1.614 5.443-3.484 1.01-1.766 1.291-4.37.217-6.096-1.219-1.958-4.02-2.561-6.313-2.83-4.255-.5-8.36 2.029-12.629 2.395-4.339.371-9.276 1.932-13.06-.219-1.559-.885-2.01-2.981-2.83-4.572-1.706-3.291-1.602-7.751-4.355-10.232-2.2-1.982-5.543-2.899-8.49-2.611-4.427.432-7.943 4.02-11.758 6.313-3.366 2.02-5.902 6.04-9.797 6.531-1.298.162-2.832-.327-3.701-1.305-1.533-1.724-.591-4.641-1.523-6.75-1.433-3.241-3.053-6.894-6.096-8.709-3.372-2.01-7.462-2.947-11.543-2.998z" fill="#ff0" stroke="#a55d4f" stroke-width="3"/><g fill="#a55d4f"><path d="m617.73 789.78c0 0-1.275 3.316-2.293 4.75-.537.755-1.152 1.524-1.967 1.965-2.355 1.273-5.22 1.213-7.863 1.639-3.31.534-9.992 1.146-9.992 1.146 0 0 1.712.858 2.621 1.146 1.806.574 3.688.921 5.57 1.146 1.519.182 3.179-.436 4.586.164 2.451 1.046 3.913 3.626 5.734 5.57 1.324 1.413 3.768 4.422 3.768 4.422 0 0-1.421-3.825-2.457-5.57-.914-1.54-3.106-2.475-3.277-4.258-.047-.486.213-1.105.656-1.311 1.477-.687 3.184.697 4.75 1.146 3.652 1.047 7.33 2.081 10.811 3.604 3.426 1.498 7.322 2.632 9.828 5.406 1.312 1.453 1.63 3.565 2.295 5.406.968 2.681 1.935 5.387 2.457 8.189.521 2.8.654 8.518.654 8.518 0 0 1.253-4.997 1.146-7.535-.108-2.58-1.498-4.97-1.801-7.535-.198-1.681-1.01-3.72 0-5.078.681-.915 2.14-1.086 3.275-.982 2.383.218 4.43 1.9 6.389 3.275 2.75 1.932 5.532 4.067 7.371 6.881 2.343 3.585 3.07 8.01 4.26 12.12.747 2.583 1.801 7.863 1.801 7.863 0 0 .384-2.289.328-3.439-.18-3.722-1.841-7.259-2.129-10.975-.114-1.471-.71-3.235.164-4.424.583-.793 1.806-1.1 2.783-.982 1.684.203 2.847 1.847 4.26 2.785 4.883 3.242 9.677 6.615 14.578 9.828 4.928 3.231 14.908 9.5 14.908 9.5 0 0-9.362-9.732-14.744-13.76-4.723-3.535-12.08-4.02-15.234-9.01-.322-.51-.481-1.287-.164-1.801 1.016-1.649 3.558-1.554 5.406-2.131 4.122-1.286 12.613-2.947 12.613-2.947 0 0-9.01-.413-13.432.328-2.486.417-4.689 2.169-7.207 2.293-2.621.129-5.221-.777-7.699-1.639-2.377-.827-4.603-2.065-6.766-3.352-1.337-.795-2.952-1.394-3.816-2.688-.471-.704-.893-1.701-.557-2.479.856-1.976 3.718-2.174 5.568-3.277 2.63-1.568 7.863-4.75 7.863-4.75 0 0-5.744 1.557-8.518 2.621-2.304.884-4.408 2.244-6.717 3.113-1.811.682-3.636 1.574-5.57 1.637-2.238.072-4.376-.941-6.551-1.473-2.908-.711-5.811-1.447-8.682-2.295-2.865-.846-5.923-1.306-8.52-2.783-.504-.287-1.173-.585-1.311-1.148-.32-1.31 1.31-2.429 1.475-3.768.208-1.694-.654-5.076-.654-5.076"/><path d="m169.13 789.77c0 0-.863 3.384-.654 5.078.165 1.339 1.795 2.457 1.475 3.768-.138.564-.806.859-1.311 1.146-2.596 1.478-5.655 1.937-8.52 2.783-2.871.848-5.774 1.584-8.682 2.295-2.175.532-4.313 1.545-6.551 1.473-1.934-.063-3.759-.955-5.57-1.637-2.309-.869-4.413-2.23-6.717-3.113-2.774-1.064-8.518-2.621-8.518-2.621 0 0 5.233 3.184 7.863 4.752 1.85 1.103 4.712 1.299 5.568 3.275.337.777-.086 1.774-.557 2.479-.864 1.293-2.48 1.894-3.816 2.689-2.163 1.287-4.389 2.523-6.766 3.35-2.478.862-5.079 1.768-7.699 1.639-2.518-.124-4.721-1.876-7.207-2.293-4.417-.741-13.432-.328-13.432-.328 0 0 8.492 1.663 12.613 2.949 1.849.577 4.388.48 5.404 2.129.316.513.16 1.291-.162 1.801-3.152 4.987-10.511 5.475-15.234 9.01-5.382 4.03-14.744 13.76-14.744 13.76 0 0 9.981-6.269 14.908-9.5 4.901-3.213 9.696-6.586 14.578-9.828 1.413-.938 2.576-2.582 4.26-2.785.977-.118 2.2.19 2.783.982.874 1.188.278 2.953.164 4.424-.288 3.715-1.949 7.252-2.129 10.975-.056 1.15.328 3.439.328 3.439 0 0 1.054-5.28 1.801-7.863 1.19-4.114 1.917-8.536 4.26-12.12 1.839-2.813 4.621-4.947 7.371-6.879 1.958-1.376 4.01-3.059 6.389-3.277 1.135-.104 2.595.068 3.275.982 1.01 1.358.198 3.397 0 5.078-.302 2.565-1.693 4.955-1.801 7.535-.106 2.538 1.146 7.535 1.146 7.535 0 0 .133-5.718.654-8.518.522-2.802 1.489-5.508 2.457-8.189.664-1.841.983-3.954 2.295-5.406 2.506-2.775 6.402-3.908 9.828-5.406 3.48-1.522 7.159-2.556 10.811-3.604 1.566-.449 3.273-1.833 4.75-1.146.443.206.703.824.656 1.311-.172 1.783-2.363 2.719-3.277 4.26-1.036 1.745-2.457 5.568-2.457 5.568 0 0 2.444-3.01 3.768-4.422 1.821-1.945 3.284-4.525 5.734-5.57 1.407-.6 3.067.018 4.586-.164 1.882-.226 3.764-.572 5.57-1.146.909-.289 2.621-1.146 2.621-1.146 0 0-6.682-.613-9.992-1.146-2.643-.426-5.508-.366-7.863-1.639-.815-.441-1.43-1.209-1.967-1.965-1.018-1.434-2.293-4.75-2.293-4.75"/></g><path d="m112.56 463.78c-7.644-.266-15.11 7.243-17.891 14.367-2.558 6.548 4.191 13.905 3.135 20.855-.819 5.387-1.797 13.553-7.121 14.715-5.983 1.305-8.147-12.837-14.164-11.701-5.192.98-7.132 8.602-7.697 13.855-.953 8.846 3.684 17.617 7.697 25.557 3.241 6.412 14.527 10.237 12.932 17.242-.642 2.82-4.807 4.09-7.697 4-2.991-.091-4.717-4.89-7.697-4.617-4.634.424-9.528 4.679-10.469 9.236-1.216 5.89 4.154 11.458 7.697 16.318 7.614 10.445 21.13 15.746 28.328 26.48 1.773 2.644.91 6.928 3.387 8.928 2.665 2.152 7.225 3.308 10.16 1.541 3.726-2.243 1.855-8.727 4.311-12.316 5.261-7.69 13.912-12.418 21.246-18.17 5.268-4.129 12.01-6.576 16.318-11.701 1.978-2.355 4.075-5.238 4-8.313-.067-2.801-1.552-6.03-4-7.391-4.318-2.392-10.01-.332-14.779.924-3.862 1.016-6.811 5.704-10.777 5.234-3.693-.437-8.586-3.363-8.621-7.082-.052-5.532 8.445-7.151 12.625-10.775 4.34-3.764 10.462-6.206 12.932-11.393 2.207-4.637 2.948-10.821.615-15.396-2.185-4.286-7.217-7.569-12.01-8-2.115-.192-3.758 2.886-5.85 2.52-2.398-.421-4.641-2.663-5.324-5-3.089-10.562 11.225-21.456 8.094-32.01-2.503-8.434-10.588-17.608-19.381-17.914zm561.74 0c-8.792.306-16.878 9.48-19.381 17.914-3.131 10.55 11.183 21.444 8.094 32.01-.683 2.337-2.926 4.579-5.324 5-2.091.367-3.735-2.712-5.85-2.52-4.791.435-9.823 3.718-12.01 8-2.332 4.576-1.592 10.759.615 15.396 2.469 5.187 8.592 7.629 12.932 11.393 4.18 3.625 12.677 5.243 12.625 10.775-.035 3.719-4.928 6.645-8.621 7.082-3.966.469-6.915-4.218-10.777-5.234-4.774-1.256-10.462-3.316-14.779-.924-2.45 1.358-3.935 4.59-4 7.391-.073 3.075 2.024 5.958 4 8.313 4.305 5.125 11.05 7.572 16.318 11.701 7.334 5.748 15.985 10.476 21.246 18.17 2.456 3.59.584 10.07 4.311 12.316 2.935 1.767 7.495.611 10.16-1.541 2.477-2 1.613-6.284 3.387-8.928 7.2-10.734 20.714-16.04 28.328-26.48 3.543-4.86 8.913-10.428 7.697-16.318-.941-4.558-5.834-8.812-10.469-9.236-2.98-.273-4.706 4.526-7.697 4.617-2.891.088-7.06-1.182-7.697-4-1.595-7.01 9.691-10.83 12.932-17.242 4.01-7.94 8.65-16.711 7.697-25.557-.566-5.253-2.506-12.875-7.697-13.855-6.02-1.136-8.181 13.01-14.164 11.701-5.324-1.161-6.303-9.328-7.121-14.715-1.056-6.95 5.693-14.307 3.135-20.855-2.784-7.124-10.247-14.633-17.891-14.367zm-567.64 287.59c-.494-.004-.993.027-1.498.094-4.426.584-8.935 4.943-9.58 9.361-.432 2.957 4.81 4.884 4.355 7.838-.289 1.877-2.267 3.584-4.137 3.918-9.794 1.749-17.502-12.332-27.434-11.756-5.679.329-13.815 2.888-14.805 8.49-.842 4.767 10.909 6.516 9.363 11.1-3.182 9.444-21.08.723-29.18 6.533-3.519 2.525-7.155 6.791-6.748 11.1.661 7.01 7.317 13.984 14.15 15.676 8.402 2.081 15.963-6.93 24.385-8.928 1.848-.438 4.26-1.933 5.662-.652 2.198 2.01-1.424 6.204-.219 8.926 1.709 3.858 5.372 7.972 9.58 8.273 4.297.308 7.61-4.168 10.885-6.967 5.237-4.476 6.88-14.61 13.717-15.457 1.918-.238 4.115 1.455 4.791 3.266.998 2.671-2.941 5.526-2.178 8.273 1 3.61 4.308 7.796 8.05 7.838 4.262.048 6.707-5.376 9.363-8.709 5.33-6.687 5.438-17.934 12.846-22.21 2.515-1.45 6.71-2.107 8.707 0 2.8 2.954-3.1 8.94-.652 12.191 1.165 1.547 3.73 1.461 5.66 1.307 8.826-.707 15.761-9.561 24.604-10.02 3.624-.186 7.085 1.688 10.449 3.049 9.962 4.03 28.521 15.02 28.521 15.02 0 0-12.449-13.254-19.16-19.377-4.304-3.927-9.598-6.777-13.5-11.1-5.19-5.754-5.889-15.963-12.846-19.377-8.04-3.943-18.882-2.252-26.779 1.959-1.87.997-4.03 2.891-3.918 5.01.189 3.536 7.797 4.102 7.402 7.621-.193 1.72-2.625 2.932-4.354 2.83-6.79-.402-10.07-9.205-15.676-13.06-6.297-4.337-12.435-12.01-19.84-12.07zm573.55 0c-7.405.062-13.543 7.732-19.84 12.07-5.602 3.858-8.886 12.66-15.676 13.06-1.728.102-4.16-1.11-4.354-2.83-.395-3.519 7.213-4.085 7.402-7.621.113-2.117-2.048-4.01-3.918-5.01-7.898-4.211-18.744-5.902-26.779-1.959-6.957 3.414-7.655 13.623-12.846 19.377-3.902 4.326-9.196 7.176-13.5 11.1-6.71 6.123-19.16 19.377-19.16 19.377 0 0 18.56-10.993 28.521-15.02 3.364-1.36 6.825-3.235 10.449-3.049 8.843.455 15.778 9.309 24.604 10.02 1.93.155 4.496.241 5.66-1.307 2.448-3.252-3.452-9.238-.652-12.191 1.997-2.107 6.192-1.45 8.707 0 7.408 4.273 7.515 15.52 12.846 22.21 2.657 3.333 5.101 8.757 9.363 8.709 3.746-.042 7.05-4.228 8.05-7.838.763-2.748-3.176-5.602-2.178-8.273.676-1.81 2.873-3.503 4.791-3.266 6.836.847 8.48 10.982 13.717 15.457 3.275 2.799 6.588 7.275 10.885 6.967 4.208-.302 7.871-4.416 9.58-8.273 1.206-2.721-2.416-6.919-.219-8.926 1.402-1.281 3.814.214 5.662.652 8.422 1.998 15.983 11.01 24.385 8.928 6.833-1.692 13.489-8.667 14.15-15.676.407-4.312-3.229-8.578-6.748-11.1-8.097-5.81-25.993 2.911-29.18-6.533-1.546-4.588 10.205-6.336 9.363-11.1-.989-5.602-9.125-8.161-14.805-8.49-9.932-.576-17.64 13.505-27.434 11.756-1.87-.334-3.848-2.041-4.137-3.918-.454-2.954 4.787-4.88 4.355-7.838-.645-4.418-5.154-8.777-9.58-9.361-.505-.067-1-.098-1.498-.094z" fill="#ff0" stroke="#a55d4f" stroke-linejoin="round" stroke-width="3"/><path d="m112.7 485.7c0 0-5.163 20.708-7.195 31.18-1.099 5.661-1.681 11.41-2.697 17.09-.513 2.864.962 7.419-1.715 8.561-2.319.989-4.575-2.301-6.379-4.063-6.544-6.389-15.289-22.783-15.289-22.783 0 0 6.581 16.295 10.793 23.982 3.156 5.761 8.133 10.48 10.791 16.486 1.128 2.549 1.931 5.312 2.098 8.094.223 3.724-1.498 11.09-1.498 11.09l8.393 7.795c0 0-2.859-11.555-2.396-17.387.19-2.395.803-4.873 2.098-6.896 3.318-5.187 9.645-7.735 13.789-12.289 4.089-4.494 10.793-14.689 10.793-14.689 0 0-10.908 12.482-17.986 16.488-2.449 1.386-5.598 3.697-8.094 2.396-1.681-.876-1.597-3.509-1.799-5.395-.588-5.497 1.213-10.991 1.799-16.488 1.534-14.385 4.496-43.17 4.496-43.17m561.44 0c0 0 2.962 28.783 4.496 43.17.586 5.497 2.387 10.991 1.799 16.488-.202 1.885-.118 4.518-1.799 5.395-2.495 1.301-5.645-1.01-8.094-2.396-7.078-4.01-17.986-16.488-17.986-16.488 0 0 6.704 10.195 10.793 14.689 4.144 4.554 10.471 7.102 13.789 12.289 1.295 2.024 1.908 4.502 2.098 6.896.463 5.832-2.396 17.387-2.396 17.387l8.393-7.795c0 0-1.721-7.368-1.498-11.09.166-2.782.97-5.545 2.098-8.094 2.658-6.01 7.635-10.726 10.791-16.486 4.212-7.688 10.793-23.982 10.793-23.982 0 0-8.745 16.394-15.289 22.783-1.804 1.761-4.06 5.05-6.379 4.063-2.677-1.141-1.202-5.696-1.715-8.561-1.016-5.676-1.599-11.425-2.697-17.09-2.032-10.47-7.195-31.18-7.195-31.18m-596.21 83.64c0 0 5.062 8.614 8.393 12.291 2.714 2.996 8.094 7.795 9.293 7.795 1.199 0 1.799-5.396 1.799-5.396 0 0-7.784-4.728-11.391-7.494-2.864-2.197-8.094-7.195-8.094-7.195m630.99 0c0 0-5.229 4.998-8.094 7.195-3.607 2.766-11.391 7.494-11.391 7.494 0 0 .6 5.396 1.799 5.396 1.199 0 6.579-4.799 9.293-7.795 3.331-3.677 8.393-12.291 8.393-12.291m-574.68 2.818c0 0-6.244 5.594-9.664 8.05-4.306 3.096-13.602 8.389-13.602 8.389 0 0 .717 6.04 2.148 6.04 1.432 0 7.855-5.37 11.1-8.725 3.977-4.116 10.02-13.758 10.02-13.758m518.37 0c0 0 6.04 9.642 10.02 13.758 3.241 3.354 9.664 8.725 11.1 8.725 1.432 0 2.148-6.04 2.148-6.04 0 0-9.295-5.292-13.602-8.389-3.42-2.459-9.664-8.05-9.664-8.05m-548.6 187.14c0 0 4.02 5.827 6.357 8.477 2.081 2.361 4.344 4.58 6.781 6.57 1.26 1.029 3.877 1.135 4.03 2.754.111 1.194-1.46 2.029-2.543 2.543-4.426 2.101-9.725 1.366-14.623 1.484-2.687.065-5.445.229-8.05-.424-3.556-.89-6.541-3.343-9.961-4.662-7.171-2.766-22.04-6.781-22.04-6.781 0 0 7.374 3.906 11.02 5.934 3.844 2.138 7.864 4.01 11.443 6.568.611.436 1.767.737 1.695 1.484-.093.977-1.636 1.107-2.543 1.482-6.95 2.875-14.656 3.45-21.826 5.723-7.117 2.256-20.98 7.84-20.98 7.84 0 0 18.782-4.556 28.19-6.781 4.46-1.055 8.93-2.068 13.393-3.115 2.177-.511 4.333-1.978 6.527-1.547 1.193.234 2.572.97 2.967 2.119.647 1.881-.897 3.901-1.695 5.723-2.213 5.05-8.477 14.197-8.477 14.197 0 0 5.674-5.536 8.05-8.688 2.788-3.694 3.61-8.953 7.205-11.867 3.314-2.687 7.863-3.59 12.08-4.238 2.864-.44 5.928-.603 8.688.281 1.536.492 3.652 1.117 4.03 2.686.735 3.076-3.541 5.306-4.662 8.264-1.076 2.837-1.908 8.9-1.908 8.9 0 0 2.415-6.449 4.309-9.289 2.88-4.319 5.831-9.263 10.525-11.479 3.817-1.801 8.425-.553 12.645-.67 5.119-.142 10.323-.943 15.363-.035 1.188.214 2.998.13 3.391 1.271.359 1.044-1 1.992-1.73 2.824-2.64 3.03-9.324 7.629-9.324 7.629 0 0 6.608-3.317 9.961-4.873 2.869-1.331 5.534-3.574 8.688-3.814 4.083-.311 7.953 1.973 11.867 3.178 6.149 1.893 15.895 6.357 18.227 6.357 2.331 0-4.904-2.667-7.205-4.238-4.528-3.092-8.232-7.341-12.928-10.172-2.383-1.437-4.882-2.943-7.629-3.391-4.412-.719-8.888 1.018-13.352 1.271-7.689.436-15.424 1.072-23.1.424-2.651-.224-5.417-.39-7.842-1.482-3.994-1.799-6.866-5.442-10.383-8.05-4.8-3.563-14.623-10.385-14.623-10.385m578.84 0c0 0-9.823 6.822-14.623 10.385-3.517 2.611-6.389 6.253-10.383 8.05-2.425 1.093-5.191 1.258-7.842 1.482-7.674.649-15.409.012-23.1-.424-4.463-.253-8.939-1.991-13.352-1.271-2.747.448-5.246 1.954-7.629 3.391-4.696 2.831-8.4 7.079-12.928 10.172-2.301 1.572-9.536 4.238-7.205 4.238 2.331 0 12.08-4.464 18.227-6.357 3.914-1.205 7.784-3.489 11.867-3.178 3.154.24 5.818 2.483 8.688 3.814 3.353 1.556 9.961 4.873 9.961 4.873 0 0-6.684-4.603-9.324-7.629-.726-.832-2.09-1.78-1.73-2.824.393-1.141 2.203-1.057 3.391-1.271 5.04-.908 10.244-.106 15.363.035 4.219.117 8.827-1.131 12.645.67 4.695 2.215 7.645 7.16 10.525 11.479 1.894 2.84 4.309 9.289 4.309 9.289 0 0-.833-6.06-1.908-8.9-1.121-2.958-5.397-5.187-4.662-8.264.375-1.569 2.491-2.193 4.03-2.686 2.759-.885 5.823-.721 8.688-.281 4.218.648 8.766 1.551 12.08 4.238 3.595 2.915 4.417 8.173 7.205 11.867 2.379 3.152 8.05 8.688 8.05 8.688 0 0-6.264-9.149-8.477-14.197-.799-1.822-2.342-3.842-1.695-5.723.395-1.149 1.774-1.885 2.967-2.119 2.194-.431 4.35 1.036 6.527 1.547 4.462 1.048 8.932 2.06 13.393 3.115 9.403 2.225 28.19 6.781 28.19 6.781 0 0-13.864-5.584-20.98-7.84-7.17-2.273-14.876-2.848-21.826-5.723-.907-.375-2.45-.506-2.543-1.482-.072-.747 1.084-1.048 1.695-1.484 3.58-2.556 7.599-4.431 11.443-6.568 3.646-2.028 11.02-5.934 11.02-5.934 0 0-14.868 4.02-22.04 6.781-3.42 1.319-6.405 3.772-9.961 4.662-2.608.652-5.366.489-8.05.424-4.898-.119-10.197.617-14.623-1.484-1.083-.514-2.654-1.349-2.543-2.543.15-1.619 2.768-1.725 4.03-2.754 2.438-1.991 4.7-4.209 6.781-6.57 2.335-2.65 6.357-8.477 6.357-8.477" fill="#a55d4f"/></g><g transform="translate(827.17-120.38)"><g><path transform="translate(-36.02 120.13)" d="m-636.98 608.64c-2.099-.049-4.104.35-5.625 1.604-4.03 3.32-2.354 10.173-3.674 15.225-.735 2.814-.22 6.434-2.363 8.4-1.378 1.265-3.737 1.64-5.512 1.049-2.586-.861-3.153-4.675-5.514-6.04-3.181-1.836-7.09-2.47-10.762-2.361-4.181.124-9.381.213-12.08 3.412-3.231 3.835-1.564 9.948-1.574 14.963-.014 6.948 1.647 13.803 2.1 20.736.194 2.97.264 5.949.262 8.926-.003 2.801-1.383 5.833-.262 8.4 1.068 2.444 3.885 3.674 6.04 5.25 1.489 1.091 3.953 1.21 4.725 2.887 1.148 2.496-.708 5.458-1.313 8.139-.963 4.268-4.283 8.267-3.674 12.6 1.483 10.554 9.162 19.885 17.06 27.04 4.496 4.071 16.275 8.139 16.275 8.139 0 0-4.996-4.272-7.35-6.563-3.02-2.936-6.88-5.375-8.664-9.188-.934-1.996-1.145-4.389-.787-6.563.363-2.201 1.516-4.281 2.889-6.04 2.027-2.596 6.04-3.406 7.611-6.299 1.432-2.631 2.4-6.251 1.051-8.926-.953-1.889-3.417-2.861-5.514-3.15-1.072-.148-2.077.942-3.148.789-1.203-.171-2.73-.697-3.15-1.838-.641-1.74.585-3.884 1.838-5.25 1.297-1.414 3.498-1.58 5.25-2.363 3.933-1.759 8.75-2.219 11.813-5.25 7.181-7.105 9.217-18.04 12.6-27.563 4.662-13.12 15.43-27.406 10.5-40.43-1.831-4.834-7.887-7.263-12.863-8.662-1.897-.534-4.089-1.029-6.188-1.078zm-94.55 8.736c-3.236-.081-6.937.899-9.145 3.266-2.088 2.239-2.622 5.786-2.477 8.844.368 7.723 11.03 14.382 8.355 21.637-.599 1.626-2.857 2.232-4.572 2.473-2.725.383-5.494-2.766-8.06-1.773-2.222.859-4.04 3.453-4.131 5.834-.233 5.82 5.114 10.617 8.926 15.02 4.154 4.799 15.737 5.696 14.805 11.975-.426 2.866-5.809 1.435-8.05 3.266-1.825 1.488-3.676 3.537-3.92 5.879-.243 2.332 1.018 4.813 2.613 6.531 4.837 5.209 12.872 6.05 19.16 9.363 4.428 2.333 14.02 2.489 13.06 7.402-.418 2.156-4.491.056-6.531.869-1.497.596-3.536 1.267-3.92 2.832-.697 2.837 1.907 5.721 3.92 7.838 7.121 7.489 17.498 11.169 26.996 15.24 11.437 4.902 35.707 10.885 35.707 10.885 0 0-22.272-25.27-32.01-38.971-2.02-2.841-4.454-5.586-5.441-8.928-3.02-10.235 4.513-22.789-.871-32-3.416-5.846-11.814-6.652-17.418-10.451-4.758-3.225-11.33-5.22-13.717-10.449-2.386-5.226 1.864-11.509 1.088-17.201-.747-5.481-1.647-11.651-5.441-15.676-2.21-2.344-5.708-3.621-8.928-3.701z" id="p0" fill="#ff0" fill-rule="evenodd" stroke="#a55d4f" stroke-width="3"/><path transform="translate(-36.02 120.13)" d="m-636.33 622.41c0 0-3.178 4.899-4.617 7.438-3.036 5.355-5.717 10.906-8.463 16.416-1.143 2.293-.91 6.096-3.334 6.924-1.266.433-2.783-.729-3.592-1.795-3.264-4.301-3.078-15.902-3.078-15.902 0 0-1.906 7.679-1.539 11.543.562 5.921 5.573 10.98 5.643 16.928.014 1.163-.516 2.288-1.025 3.334-1.049 2.154-3.03 3.757-4.104 5.898-.969 1.933-2.053 6.156-2.053 6.156 0 0-1.914-2.713-2.82-4.104-1.866-2.862-5.387-8.721-5.387-8.721 0 0 1.591 8.01 3.078 11.797.924 2.35 2.877 4.249 3.592 6.67.607 2.057 2.187 5.074.512 6.412-1.12.894-3.073-.287-4.104-1.283-3.377-3.266-5.439-10.765-6.51-15.93.77 4.219 1.909 9.836 3.176 13.365 1.33 3.707 4.194 6.762 5.387 10.516.549 1.728.641 3.576.77 5.385.248 3.496 0 10.518 0 10.518 0 0-2.092-2.533-3.336-3.592-1.878-1.598-6.154-4.104-6.154-4.104 0 0 4.329 6.462 6.412 9.746.966 1.523 2.01 3 2.82 4.617 2.475 4.939 6.156 15.389 6.156 15.389 0 0-2.774-8.962-3.334-13.594-.185-1.528-.571-3.188 0-4.617.875-2.19 3.315-3.359 4.873-5.129 1.967-2.235 5.643-6.926 5.643-6.926 0 0-5.718 5.01-8.977 6.926-.561.33-1.214 1.059-1.797.77-.632-.313-.426-1.353-.512-2.053-.324-2.63-.179-5.307 0-7.951.257-3.788.086-7.778 1.539-11.285 1.027-2.48 2.637-4.924 4.873-6.41 2.279-1.515 5.408-1.042 7.951-2.053 2.631-1.046 7.438-4.104 7.438-4.104 0 0-5.779 1.686-8.721 2.309-2.118.448-4.436 1.909-6.412 1.025-1.299-.581-2.068-2.187-2.309-3.59-.435-2.531.849-5.101 1.766-7.5.582-1.524 1.185-3.145 2.338-4.299 2.271-2.273 5.563-3.237 8.465-4.617 1.835-.873 3.848-1.356 5.643-2.309 1.633-.867 4.617-3.076 4.617-3.076 0 0-6.282 1.622-9.49 2.051-1.612.215-3.549 1.201-4.873.256-.507-.362-.508-1.173-.514-1.795-.012-1.327.571-2.6 1.025-3.848 2-5.499 5.18-10.502 7.439-15.9 2.183-5.215 5.898-15.902 5.898-15.902m-37.801 51.781c-.542-2.969-.928-5.357-.928-5.357 0 0 .285 2.258.928 5.357m-56.68-40.846c0 0 2.983 17.413 4.867 26.04.805 3.684 2.551 7.209 2.746 10.975.032.618.299 1.575-.262 1.836-.749.348-1.404-.871-2.102-1.313-5.885-3.727-17.588-11.287-17.588-11.287 0 0 8.08 8.103 12.383 11.871 3.788 3.319 8.77 5.415 11.801 9.438 2.444 3.243 3.531 7.351 4.693 11.242.408 1.365 1.111 2.812.787 4.199-.199.852-.805 1.688-1.576 2.102-.805.432-1.829.279-2.734.158-5.083-.677-14.59-4.885-14.59-4.885 0 0 6.346 3.926 9.713 5.514 2.881 1.359 6.129 1.885 8.924 3.412 1.812.99 3.475 2.27 4.988 3.676 1.773 1.647 3.296 3.558 4.725 5.512 2.552 3.489 4.378 7.463 6.826 11.03 1.556 2.264 4.986 6.563 4.986 6.563 0 0-3.356-.766-4.986-1.313-3.497-1.172-10.238-4.201-10.238-4.201 0 0 6.691 4.768 10.238 6.826 2.708 1.571 5.64 2.722 8.4 4.199 4.354 2.33 8.462 5.108 12.861 7.352 5.303 2.705 10.785 5.05 16.275 7.35 2.683 1.124 8.139 3.15 8.139 3.15 0 0-21.46-8.374-29.4-16.275-1.777-1.768-3.45-4.065-3.676-6.563-.291-3.224 3.15-9.188 3.15-9.188 0 0-2.279.366-3.15 1.049-1.548 1.213-2.604 3.099-3.15 4.988-.195.672 0 2.1 0 2.1 0 0-1.298.041-1.838-.262-3.01-1.684-4.531-5.203-6.594-7.965-1.303-1.745-2.695-3.463-3.643-5.424-1.879-3.887-3.03-8.118-3.938-12.338-1.115-5.167-1.838-15.75-1.838-15.75l-1.051 6.301c-.263 1.575.7 4.144-.787 4.725-.929.363-1.78-1.029-2.363-1.838-.922-1.28-1.069-2.967-1.574-4.461-1.024-3.03-2.65-5.943-2.951-9.125-.199-2.107.335-4.233.787-6.301.945-4.325 4-12.662 4-12.662 0 0-2.672 5.614-4.463 8.137-.681.96-1.207 2.406-2.363 2.625-.577.109-1.174-.358-1.574-.787-1.871-2.01-2.237-5.02-3.15-7.613-1.769-5.02-2.985-10.213-4.494-15.314-1.727-5.836-5.219-17.498-5.219-17.498" id="p1" fill="#a55d4f" fill-rule="evenodd"/></g><g transform="matrix(-1 0 0 1-867.47 0)"><use xlink:href="#p0" width="786.86" height="894.54"/><use xlink:href="#p1" width="786.86" height="894.54"/></g></g><g transform="translate(36.32-120.38)" fill-rule="evenodd"><path d="m101.06 871.79c0 0-26.607-16.755-36.948-28.327-7.823-8.754-18.07-18.434-18.17-30.17-.017-2.07 1.225-4.524 3.113-5.372 1.614-.725 3.551.42 5.2 1.061 1.116.434 1.895 2.025 3.079 1.847 1.366-.205 2.878-1.702 2.771-3.079-.44-5.673-9.302-6.669-13.24-10.777-5.583-5.823-11.05-12.09-14.471-19.398-.938-2.01-2.226-4.359-1.54-6.466.957-2.938 3.968-5.77 7.05-6.02 2.285-.187 3.592 3.537 5.884 3.559 2.253.022 5.315-1.198 5.85-3.387 1.906-7.8-9.74-12.954-12.932-20.322-1.643-3.792-3.904-7.959-3.079-12.01.877-4.305 3.633-10.04 8.01-10.469 3.546-.345 4.452 6.819 8.01 7.082 2.442.181 5.05-1.818 6.158-4 3.425-6.766-4.366-15.777-1.301-22.713 2.261-5.118 7.441-10.46 13.04-10.576 5.574-.115 11.514 4.75 13.412 9.992 2.827 7.808-6.591 15.955-5.818 24.22.262 2.8.881 6.566 3.457 7.696 2.378 1.043 4.839-2.949 7.39-2.463 4.079.776 8.974 3.892 9.545 8.01 1.462 10.53-18.575 15.766-17.928 26.377.133 2.178 2.182 4.448 4.311 4.926 2.427.545 4.425-3.558 6.844-2.977 4.395 1.056 8.987 5.963 8.621 10.469-.807 9.931-16.249 11.928-22.477 19.706-2.411 3.01-5.901 6.319-5.542 10.161.136 1.452 1.392 2.912 2.771 3.387 3.084 1.062 6.437-3.144 9.545-2.155 2.632.837 5.05 3.441 5.542 6.158 1.198 6.62-7.591 12.06-7.39 18.782.19 6.334 4.914 11.711 8.01 17.242 3.902 6.983 12.522 17.216 13.24 20.01z" fill="#ff0" stroke="#a55d4f" stroke-width="3"/><path d="m88.92 861.13c0 0-14.723-19.41-22.568-28.722-4.055-4.814-12.652-14.02-12.652-14.02 0 0 3.917 2.678 5.813 4.103 2.333 1.754 6.839 5.471 6.839 5.471 0 0-3.075-22.19-7.1-32.531-.759-1.95-1.819-3.816-3.158-5.424-2.691-3.229-6.49-5.35-9.574-8.206-2.602-2.409-7.523-7.523-7.523-7.523 0 0 7.963 5.04 11.968 7.523 2.044 1.267 3.824 4.352 6.155 3.761 1.186-.3 1.55-1.985 1.843-3.173 1.521-6.172 1.02-12.967-.817-19.05-1.847-6.119-7.279-10.59-9.916-16.413-2.023-4.466-4.445-14.02-4.445-14.02 0 0 3.331 8.06 5.702 11.686 2.02 3.095 3.518 7.904 7.173 8.457 1.039.157 2.099-.804 2.66-1.692 3.899-6.18 1.38-14.566 2.66-21.761 1.421-7.987 5.561-23.695 5.561-23.695 0 0-1.204 16.454-2.16 24.644-.811 6.947-3.654 13.796-3.03 20.762.259 2.896.007 7.372 2.772 8.27 3.104 1.01 5.45-3.611 7.969-5.685 2.488-2.048 4.58-4.543 7.02-6.646 1.784-1.536 5.561-4.352 5.561-4.352 0 0-4.845 6.255-7.495 9.188-3.745 4.144-8.626 7.285-11.847 11.847-1.081 1.531-1.906 3.274-2.418 5.077-1.217 4.29-1.777 8.851-1.451 13.298.14 1.911-.182 4.558 1.451 5.561 1.616.993 3.802-.499 5.561-1.209 5.973-2.411 16.441-10.155 16.441-10.155l-10.88 10.88c-2.579 2.579-5.771 4.665-7.737 7.737-1.044 1.632-1.741 3.535-2.01 5.453-.53 3.79.285 7.665.859 11.449.795 5.241 1.569 10.587 3.568 15.497.356.874.529 2.436 1.472 2.418 2.305-.045 2.029-4.164 3.364-6.04 1.685-2.374 5.803-6.528 5.803-6.528 0 0-3.303 4.636-4.352 7.254-.953 2.377-1.692 4.934-1.692 7.495 0 2.561.739 5.118 1.692 7.495 3.114 7.766 12.917 21.523 12.917 21.523" fill="#a55d4f"/><path d="m613.16 871.79c0 0 26.607-16.755 36.948-28.327 7.823-8.754 18.07-18.434 18.17-30.17.017-2.07-1.225-4.524-3.113-5.372-1.614-.725-3.551.42-5.2 1.061-1.116.434-1.895 2.025-3.079 1.847-1.366-.205-2.878-1.702-2.771-3.079.44-5.673 9.302-6.669 13.24-10.777 5.583-5.823 11.05-12.09 14.471-19.398.938-2.01 2.226-4.359 1.539-6.466-.957-2.938-3.968-5.77-7.05-6.02-2.285-.187-3.592 3.537-5.884 3.559-2.253.022-5.315-1.198-5.85-3.387-1.906-7.8 9.74-12.954 12.932-20.322 1.643-3.792 3.904-7.959 3.079-12.01-.877-4.305-3.633-10.04-8.01-10.469-3.546-.345-4.452 6.819-8.01 7.082-2.442.181-5.05-1.818-6.158-4-3.425-6.766 4.366-15.777 1.301-22.713-2.261-5.118-7.441-10.46-13.04-10.576-5.574-.115-11.514 4.75-13.412 9.992-2.827 7.808 6.591 15.955 5.818 24.22-.262 2.8-.881 6.566-3.457 7.696-2.378 1.043-4.839-2.949-7.39-2.463-4.079.776-8.974 3.892-9.545 8.01-1.462 10.53 18.575 15.766 17.928 26.377-.133 2.178-2.182 4.448-4.311 4.926-2.427.545-4.425-3.558-6.843-2.977-4.395 1.056-8.987 5.963-8.621 10.469.807 9.931 16.249 11.928 22.477 19.706 2.411 3.01 5.901 6.319 5.542 10.161-.136 1.452-1.392 2.912-2.771 3.387-3.084 1.062-6.437-3.144-9.545-2.155-2.632.837-5.05 3.441-5.542 6.158-1.198 6.62 7.591 12.06 7.39 18.782-.19 6.334-4.914 11.711-8.01 17.242-3.902 6.983-12.522 17.216-13.24 20.01z" fill="#ff0" stroke="#a55d4f" stroke-width="3"/><path d="m625.3 861.13c0 0 14.723-19.41 22.568-28.722 4.055-4.814 12.652-14.02 12.652-14.02 0 0-3.917 2.678-5.813 4.103-2.333 1.754-6.839 5.471-6.839 5.471 0 0 3.075-22.19 7.1-32.531.759-1.95 1.819-3.816 3.158-5.424 2.691-3.229 6.49-5.35 9.574-8.206 2.602-2.409 7.523-7.523 7.523-7.523 0 0-7.963 5.04-11.968 7.523-2.044 1.267-3.824 4.352-6.155 3.761-1.186-.3-1.55-1.985-1.843-3.173-1.521-6.172-1.02-12.967.817-19.05 1.847-6.119 7.279-10.59 9.916-16.413 2.023-4.466 4.445-14.02 4.445-14.02 0 0-3.331 8.06-5.702 11.686-2.02 3.095-3.518 7.904-7.173 8.457-1.039.157-2.099-.804-2.66-1.692-3.899-6.18-1.38-14.566-2.66-21.761-1.421-7.987-5.561-23.695-5.561-23.695 0 0 1.204 16.454 2.16 24.644.811 6.947 3.654 13.796 3.03 20.762-.259 2.896-.007 7.372-2.772 8.27-3.104 1.01-5.45-3.611-7.969-5.685-2.488-2.048-4.58-4.543-7.02-6.646-1.784-1.536-5.561-4.352-5.561-4.352 0 0 4.845 6.255 7.495 9.188 3.745 4.144 8.626 7.285 11.847 11.847 1.081 1.531 1.906 3.274 2.418 5.077 1.217 4.29 1.777 8.851 1.451 13.298-.14 1.911.182 4.558-1.451 5.561-1.616.993-3.802-.499-5.561-1.209-5.973-2.411-16.441-10.155-16.441-10.155l10.88 10.88c2.579 2.579 5.771 4.665 7.737 7.737 1.044 1.632 1.741 3.535 2.01 5.453.53 3.79-.285 7.665-.859 11.449-.795 5.241-1.569 10.587-3.568 15.497-.356.874-.529 2.436-1.472 2.418-2.305-.045-2.029-4.164-3.364-6.04-1.685-2.374-5.803-6.528-5.803-6.528 0 0 3.303 4.636 4.352 7.254.953 2.377 1.692 4.934 1.692 7.495 0 2.561-.739 5.118-1.692 7.495-3.114 7.766-12.917 21.523-12.917 21.523" fill="#a55d4f"/><g stroke="#a55d4f" stroke-width="3"><path d="m139.05 718.56c-4.088.381-6.285 5.395-8.709 8.709-8.202 11.213-14 24.11-19.16 37.01-6.563 16.422-11.939 33.495-14.805 50.946-2.754 16.773-1.814 33.953-2.177 50.946-.053 2.467 0 7.402 0 7.402l84.04 54.865c0 0-17.367-30.922-21.772-47.898-4.499-17.338-7.095-35.858-4.354-53.56 2.639-17.05 19.595-47.898 19.595-47.898 0 0 1.132-30.493-6.532-42.673-5.617-8.928-15.624-18.832-26.13-17.853z" fill="#e562ca"/><path d="m575.17 718.56c4.088.381 6.285 5.395 8.709 8.709 8.202 11.213 14 24.11 19.16 37.01 6.563 16.422 11.939 33.495 14.805 50.946 2.754 16.773 1.814 33.953 2.177 50.946.053 2.467 0 7.402 0 7.402l-84.04 54.865c0 0 17.367-30.922 21.772-47.898 4.499-17.338 7.095-35.858 4.354-53.56-2.639-17.05-19.595-47.898-19.595-47.898 0 0-1.132-30.493 6.532-42.673 5.617-8.928 15.624-18.832 26.13-17.853z" fill="#3f59d2"/><path transform="translate(-36.02 120.13)" d="m245.21 698.21c-2.549-.035-5.091.04-7.598.197-5.615.351-11.72 1.072-16.32 4.311-1.63 1.147-3.108 2.955-3.387 4.928-.363 2.571.741 5.445 2.463 7.389 2.862 3.23 7.644 4.071 11.701 5.543 2.691.976 5.778.822 8.313 2.154 1.803.948 3.251 2.495 4.619 4 2.028 2.236 3.122 5.233 5.234 7.389 2.055 2.097 4.388 4.069 7.082 5.234 2.106.911 4.478 1.229 6.773 1.232 2.919.005 6.01-.235 8.621-1.541 3.767-1.884 7.73-4.689 9.238-8.621 2.103-5.483 1.217-12.364-1.541-17.549-2.605-4.896-7.838-8.274-12.932-10.469-6.918-2.981-14.62-4.095-22.268-4.201zm295.84 0c-7.648.106-15.349 1.22-22.268 4.201-5.093 2.195-10.327 5.572-12.932 10.469-2.758 5.185-3.644 12.07-1.541 17.549 1.508 3.933 5.472 6.737 9.238 8.621 2.611 1.306 5.702 1.546 8.621 1.541 2.295-.004 4.667-.321 6.773-1.232 2.694-1.165 5.03-3.138 7.082-5.234 2.113-2.156 3.207-5.152 5.234-7.389 1.368-1.509 2.816-3.056 4.619-4 2.534-1.332 5.621-1.178 8.313-2.154 4.057-1.472 8.839-2.313 11.701-5.543 1.722-1.943 2.826-4.818 2.463-7.389-.279-1.973-1.757-3.781-3.387-4.928-4.601-3.239-10.705-3.959-16.32-4.311-2.506-.157-5.05-.233-7.598-.197zm-215.9 42.23c-1.473-.033-2.863.248-4.094 1.072-4.558 3.052-5.4 10.238-4.928 15.703.308 3.567 2.453 6.957 4.928 9.545 4.417 4.619 12.02 5.112 16.625 9.545 2.789 2.687 5.02 6.151 6.158 9.852 2.243 7.263-1.862 15.713.924 22.785 2.828 7.178 9.06 12.734 15.09 17.551 4.447 3.554 15.09 8.01 15.09 8.01 0 0 10.159-14.838 13.549-23.09 1.802-4.388 3.839-8.986 4.646-13.664.807 4.678 2.845 9.276 4.646 13.664 3.39 8.256 13.549 23.09 13.549 23.09 0 0 10.639-4.451 15.09-8.01 6.03-4.817 12.26-10.373 15.09-17.551 2.786-7.07-1.319-15.523.924-22.785 1.143-3.701 3.369-7.165 6.158-9.852 4.603-4.433 12.208-4.926 16.625-9.545 2.475-2.588 4.619-5.978 4.928-9.545.472-5.465-.369-12.651-4.928-15.703-1.231-.824-2.621-1.105-4.094-1.072-3.24.072-6.874 1.66-10.07 2.303-11.201 2.254-24.594 2.356-32.639 10.469-4.617 4.656-5.223 12.256-5.85 18.783-.355 3.701 2.251 7.509 1.232 11.08-.501 1.757-1.574 4.076-3.387 4.311-4.723.61-6.771-9.771-11.393-8.621-3.972.988-5.288 6.241-5.879 10.771-.591-4.531-1.907-9.783-5.879-10.771-4.621-1.15-6.67 9.231-11.393 8.621-1.812-.234-2.886-2.553-3.387-4.311-1.019-3.575 1.587-7.383 1.232-11.08-.626-6.527-1.232-14.13-5.85-18.783-8.04-8.113-21.438-8.215-32.639-10.469-3.194-.643-6.829-2.23-10.07-2.303zm-75.61 15.543c-4.948.301-9.03 4.918-13.471 7.389-3.983 2.218-7.192 6.397-11.699 7.082-9.721 1.478-19.09-9.439-28.635-7.082-5.999 1.481-11.1 6.137-11.08 12.316.017 6.836 5.928 12.168 12.623 13.549 4.546.938 8.631-4.859 13.24-4.311 3.111.37 7.567 1.823 8.01 4.926.642 4.532-9.995 5.646-9.238 10.16.812 4.847 8.02 6.811 12.932 7.082 5.652.312 10.782-3.667 15.703-6.465 4.01-2.283 6.537-9.125 11.08-8.314 2.046.365 3.563 3.163 3.389 5.234-.14 1.665-3.44 2.025-3.389 3.695.123 3.99 4.647 7.955 8.623 8.313 3.686.331 6.347-3.847 9.236-6.158 7.086-5.668 19.705-18.781 19.705-18.781l-.924-2.771c0 0-10.686-9.08-16.318-13.24-6.07-4.485-11.251-12.172-18.781-12.623-.338-.02-.672-.02-1 0zm286.17 0c-7.53.451-12.716 8.138-18.781 12.623-5.632 4.165-16.318 13.24-16.318 13.24l-.924 2.771c0 0 12.619 13.11 19.705 18.781 2.89 2.312 5.551 6.489 9.236 6.158 3.976-.357 8.5-4.322 8.623-8.313.052-1.67-3.249-2.03-3.389-3.695-.174-2.071 1.343-4.869 3.389-5.234 4.547-.811 7.07 6.03 11.08 8.314 4.921 2.798 10.05 6.777 15.703 6.465 4.907-.271 12.12-2.235 12.932-7.082.756-4.514-9.88-5.628-9.238-10.16.439-3.102 4.895-4.556 8.01-4.926 4.609-.548 8.695 5.248 13.24 4.311 6.695-1.381 12.606-6.713 12.623-13.549.015-6.179-5.085-10.835-11.08-12.316-9.546-2.357-18.914 8.56-28.635 7.082-4.507-.685-7.717-4.864-11.699-7.082-4.436-2.471-8.522-7.088-13.471-7.389-.33-.02-.664-.02-1 0zm-239.64 50.805c-.38-.006-.756.003-1.127.027-1.898.123-3.956.877-5.221 2.297-1.259 1.415-1.978 3.563-1.672 5.432.539 3.299 6.481 4.863 5.848 8.145-.516 2.674-4.178 4.169-6.893 4.387-5.44.437-9.732-7.758-15.04-6.475-4.999 1.209-9.862 6.763-9.816 11.906.05 5.679 5.629 11.317 11.07 12.949 4.58 1.375 9.143-5.116 13.785-3.969 2.342.579 5.03 2.607 5.223 5.01.226 2.776-5.334 3.917-5.01 6.684.449 3.879 5.097 7.136 8.982 7.52 7.658.757 12.642-12.163 20.26-11.07 1.852.266 3.876 2.098 3.969 3.967.148 2.965-5.562 3.925-5.641 6.893-.103 3.884 3.089 8.607 6.893 9.4 3.39.707 6.154-3.224 8.982-5.223 4.922-3.477 7.86-10.596 13.785-11.695 2.901-.538 7.557.083 8.354 2.924.681 2.429-5.098 3.342-4.803 5.848.338 2.863 4.088 4.554 6.893 5.221 3.375.802 6.766-1.925 10.234-1.879 3.7.05 7.312 3.35 10.859 2.297 2.171-.644 4.455-2.565 4.805-4.803.822-5.261-3.279-10.725-7.311-14.203-5.068-4.372-16.424-12.65-19.01-6.475-.12.287.936.124.834.418-.906 2.62-6.05.139-8.145-1.672-2.467-2.13-1.87-6.281-3.342-9.189-1.36-2.688-2.425-5.979-5.01-7.52-2.643-1.573-6.177-.216-9.189-.836-3.299-.679-6.281-2.604-9.607-3.133-2.957-.47-6.154.982-8.982 0-1.592-.553-2.92-1.814-3.969-3.133-1.725-2.169-1.442-5.719-3.549-7.52-1.978-1.691-4.78-2.489-7.438-2.533zm194.1 0c-2.657.044-5.459.842-7.438 2.533-2.107 1.801-1.824 5.35-3.549 7.52-1.049 1.319-2.377 2.58-3.969 3.133-2.828.982-6.03-.47-8.982 0-3.327.529-6.308 2.454-9.607 3.133-3.01.62-6.546-.737-9.189.836-2.589 1.54-3.654 4.832-5.01 7.52-1.472 2.909-.874 7.06-3.342 9.189-2.098 1.811-7.239 4.291-8.145 1.672-.102-.294.954-.131.834-.418-2.582-6.175-13.938 2.102-19.01 6.475-4.03 3.478-8.133 8.942-7.311 14.203.35 2.237 2.634 4.158 4.805 4.803 3.548 1.053 7.159-2.247 10.859-2.297 3.468-.047 6.86 2.681 10.234 1.879 2.804-.666 6.555-2.358 6.893-5.221.295-2.505-5.483-3.418-4.803-5.848.796-2.841 5.453-3.462 8.354-2.924 5.925 1.099 8.864 8.218 13.785 11.695 2.828 1.998 5.592 5.93 8.982 5.223 3.803-.794 6.995-5.517 6.893-9.4-.079-2.967-5.789-3.928-5.641-6.893.093-1.868 2.117-3.701 3.969-3.967 7.617-1.094 12.601 11.825 20.26 11.07 3.885-.384 8.534-3.641 8.982-7.52.32-2.766-5.239-3.908-5.01-6.684.196-2.405 2.88-4.433 5.223-5.01 4.642-1.148 9.205 5.343 13.785 3.969 5.439-1.633 11.02-7.271 11.07-12.949.046-5.143-4.817-10.697-9.816-11.906-5.305-1.283-9.597 6.911-15.04 6.475-2.715-.218-6.376-1.713-6.893-4.387-.634-3.282 5.308-4.846 5.848-8.145.306-1.869-.413-4.02-1.672-5.432-1.264-1.42-3.323-2.174-5.221-2.297-.371-.024-.747-.033-1.127-.027z" fill="#ff0"/></g><g fill="#a55d4f"><path d="m294.27 870.87c0 0 7.851 13.734 12.623 20.01 4.528 5.959 10.66 10.594 15.09 16.627.618.842 1.952 1.727 1.584 2.705-.541 1.44-2.885 1.097-4.379 1.463-2.819.691-8.598 1.373-8.598 1.373 0 0 8.144.109 12.01 1.232 2.204.641 4.353 1.661 6.158 3.078 3.54 2.781 6.405 6.45 8.73 10.305.659 1.093 1.641 2.292 1.43 3.551-.518 3.085-5.984 3.959-6.156 7.082-.179 3.241 2.666 6.5 5.541 8.01 1.818.953 4.557 1.284 6.158 0 2.214-1.776 1.639-5.481 1.848-8.313.212-2.873-.681-5.741-.615-8.621.062-2.705.633-5.375.945-8.06.511-4.394 1.518-13.184 1.518-13.184 0 0-1.982 8.537-3.553 12.613-.702 1.821-.732 4.698-2.605 5.246-.574.168-1.078-.543-1.539-.924-2.02-1.667-3.59-3.816-5.234-5.852-1.754-2.172-3.919-4.17-4.928-6.773-2.02-5.2-1.339-11.07-1.846-16.627-.654-7.173-1.541-21.553-1.541-21.553 0 0 .296 16.47-.615 24.633-.174 1.56.434 3.829-.924 4.617-.842.489-1.946-.408-2.771-.924-5.722-3.579-9.655-9.446-14.162-14.471-4.967-5.537-14.164-17.242-14.164-17.242m-90.96 16.207c0 0 .946 3.994 1.74 5.877.808 1.916 3.296 3.379 3.049 5.443-.165 1.377-1.588 2.432-2.83 3.049-.653.324-1.448.22-2.178.217-7.445-.029-14.845-1.286-22.21-2.395-7.164-1.079-21.336-4.137-21.336-4.137 0 0 13.812 4.417 20.9 5.879 6.454 1.331 13.234.896 19.596 2.613.911.246 2.414.165 2.611 1.088.688 3.213-4.193 5.12-6.748 7.186-3.494 2.825-11.539 6.967-11.539 6.967 0 0 12.467-5.698 18.506-8.928 2.897-1.55 5.487-3.674 8.49-5.01 2.224-.987 4.555-2.499 6.967-2.176 2.135.286 3.57 2.419 5.443 3.482 1.693.962 4.702.737 5.225 2.613.438 1.571-1.665 2.808-2.611 4.137-2.157 3.03-6.967 8.709-6.967 8.709 0 0 5.276-3.839 7.619-6.096 1.52-1.463 2.595-3.352 4.137-4.791.531-.495 1.145-.894 1.742-1.307 2.335-1.615 6.771-1.764 7.184-4.572.307-2.087-2.277-3.794-4.137-4.789-2.063-1.104-4.63-.747-6.967-.871-3.987-.212-8.08 1.101-11.975.219-2.058-.466-4-1.526-5.66-2.832-3.276-2.583-8.05-9.578-8.05-9.578m56.38 49.31c0 0 5 7.648 7.99 11.09 1.235 1.422 2.945 2.408 4.076 3.914.774 1.03 2.392 2.282 1.795 3.424-.812 1.553-3.466.652-5.219.652-11.393 0-33.916-4.24-33.916-4.24 0 0 13.332 3.131 20.06 4.404 5.083.963 10.287 1.274 15.326 2.445 2.16.502 5.872-.207 6.359 1.957.778 3.453-5.193 4.809-7.826 7.174-2.693 2.419-8.152 7.174-8.152 7.174 0 0 8.699-5.404 13.207-7.826 3.405-1.829 6.637-4.338 10.436-5.05 2.732-.515 5.637-.092 8.316.652 1.991.553 4.546.962 5.543 2.771.527.957.13 2.269-.326 3.262-2.071 4.506-10.271 10.762-10.271 10.762 0 0 6.963-4.731 10.598-6.848 2.437-1.419 4.749-3.304 7.502-3.914 2.39-.53 4.972-.304 7.338.326 5.497 1.465 10.639 4.379 15.16 7.826.765.583 2.203 1.191 1.957 2.121-.321 1.213-2.363.868-3.588 1.141-2.461.547-7.5.979-7.5.979 0 0 5.652.651 8.479.979 2.337.271 4.675.539 7.01.814 2.283.269 6.848.816 6.848.816 0 0-8.911-7.543-13.859-10.6-6.225-3.845-13.869-5.241-19.73-9.621-2.774-2.073-5.28-4.664-7.01-7.662-1.711-2.962-3.098-9.785-3.098-9.785 0 0-.295 5.127 0 7.664.219 1.886 1.824 3.719 1.305 5.545-.273.961-1.16 1.839-2.119 2.119-2.19.641-4.535-.706-6.686-1.467-1.833-.648-3.559-1.596-5.219-2.609-4.314-2.634-8.315-5.769-12.229-8.969-4.379-3.58-12.557-11.414-12.557-11.414"/><path d="m419.95 870.87c0 0-7.851 13.734-12.623 20.01-4.528 5.959-10.66 10.594-15.09 16.627-.618.842-1.952 1.727-1.584 2.705.541 1.44 2.885 1.097 4.379 1.463 2.819.691 8.598 1.373 8.598 1.373 0 0-8.144.109-12.01 1.232-2.204.641-4.353 1.661-6.158 3.078-3.54 2.781-6.405 6.45-8.73 10.305-.659 1.093-1.641 2.292-1.43 3.551.518 3.085 5.984 3.959 6.156 7.082.179 3.241-2.666 6.5-5.541 8.01-1.818.953-4.557 1.284-6.158 0-2.214-1.776-1.639-5.481-1.848-8.313-.212-2.873.681-5.741.615-8.621-.062-2.705-.633-5.375-.945-8.06-.511-4.394-1.518-13.184-1.518-13.184 0 0 1.982 8.537 3.553 12.613.702 1.821.732 4.698 2.605 5.246.574.168 1.078-.543 1.539-.924 2.02-1.667 3.59-3.816 5.234-5.852 1.754-2.172 3.919-4.17 4.928-6.773 2.02-5.2 1.339-11.07 1.846-16.627.654-7.173 1.541-21.553 1.541-21.553 0 0-.296 16.47.615 24.633.174 1.56-.434 3.829.924 4.617.842.489 1.946-.408 2.771-.924 5.722-3.579 9.655-9.446 14.162-14.471 4.967-5.537 14.164-17.242 14.164-17.242m90.96 16.207c0 0-.946 3.994-1.74 5.877-.808 1.916-3.296 3.379-3.049 5.443.165 1.377 1.588 2.432 2.83 3.049.653.324 1.448.22 2.178.217 7.445-.029 14.845-1.286 22.21-2.395 7.164-1.079 21.336-4.137 21.336-4.137 0 0-13.812 4.417-20.9 5.879-6.454 1.331-13.234.896-19.596 2.613-.911.246-2.414.165-2.611 1.088-.688 3.213 4.193 5.12 6.748 7.186 3.494 2.825 11.539 6.967 11.539 6.967 0 0-12.467-5.698-18.506-8.928-2.897-1.55-5.487-3.674-8.49-5.01-2.224-.987-4.555-2.499-6.967-2.176-2.135.286-3.57 2.419-5.443 3.482-1.693.962-4.702.737-5.225 2.613-.438 1.571 1.665 2.808 2.611 4.137 2.157 3.03 6.967 8.709 6.967 8.709 0 0-5.276-3.839-7.619-6.096-1.52-1.463-2.595-3.352-4.137-4.791-.531-.495-1.145-.894-1.742-1.307-2.335-1.615-6.771-1.764-7.184-4.572-.307-2.087 2.277-3.794 4.137-4.789 2.063-1.104 4.63-.747 6.967-.871 3.987-.212 8.08 1.101 11.975.219 2.058-.466 4-1.526 5.66-2.832 3.276-2.583 8.05-9.578 8.05-9.578m-56.38 49.31c0 0-5 7.648-7.99 11.09-1.235 1.422-2.945 2.408-4.076 3.914-.774 1.03-2.392 2.282-1.795 3.424.812 1.553 3.466.652 5.219.652 11.393 0 33.916-4.24 33.916-4.24 0 0-13.332 3.131-20.06 4.404-5.083.963-10.287 1.274-15.326 2.445-2.16.502-5.872-.207-6.359 1.957-.778 3.453 5.193 4.809 7.826 7.174 2.693 2.419 8.152 7.174 8.152 7.174 0 0-8.699-5.404-13.207-7.826-3.405-1.829-6.637-4.338-10.436-5.05-2.732-.515-5.637-.092-8.316.652-1.991.553-4.546.962-5.543 2.771-.527.957-.13 2.269.326 3.262 2.071 4.506 10.271 10.762 10.271 10.762 0 0-6.963-4.731-10.598-6.848-2.437-1.419-4.749-3.304-7.502-3.914-2.39-.53-4.972-.304-7.338.326-5.497 1.465-10.639 4.379-15.16 7.826-.765.583-2.203 1.191-1.957 2.121.321 1.213 2.363.868 3.588 1.141 2.461.547 7.5.979 7.5.979 0 0-5.652.651-8.479.979-2.337.271-4.675.539-7.01.814-2.283.269-6.848.816-6.848.816 0 0 8.911-7.543 13.859-10.6 6.225-3.845 13.869-5.241 19.73-9.621 2.774-2.073 5.28-4.664 7.01-7.662 1.711-2.962 3.098-9.785 3.098-9.785 0 0 .295 5.127 0 7.664-.219 1.886-1.824 3.719-1.305 5.545.273.961 1.16 1.839 2.119 2.119 2.19.641 4.535-.706 6.686-1.467 1.833-.648 3.559-1.596 5.219-2.609 4.314-2.634 8.315-5.769 12.229-8.969 4.379-3.58 12.557-11.414 12.557-11.414"/></g><path d="m357.11 917.86v-8.201" fill="none" stroke="#a55d4f" stroke-width="3"/></g><g transform="translate(824.4-120.38)"><g><path d="m-554.21 878.26c-2.812-1.012-5.894 1.24-8.621 2.463-7.872 3.531-13.942 10.433-21.861 13.856-3.793 1.639-7.896 3.487-12.01 3.079-3.061-.304-6.122-1.844-8.313-4-1.144-1.127-2.325-2.713-2.155-4.311.208-1.961 2.448-3.091 3.695-4.619 1.521-1.863 4.619-3.137 4.619-5.542 0-2.405-2.297-4.914-4.619-5.542-7.271-1.967-13.713 7.624-21.245 7.698-5.095.05-10.326-1.964-14.471-4.926-2.322-1.659-5.395-3.925-5.234-6.774.283-5 10.291-5.772 10.469-10.777.091-2.548-2.788-4.462-4.926-5.85-5.286-3.431-12.986-1.646-18.17-5.234-4.522-3.132-9.181-7.78-9.853-13.24-.489-3.973 1.602-8.453 4.619-11.08 2.72-2.373 6.873-3.087 10.469-2.771 4.62.406 8.669 3.428 12.624 5.85 5.673 3.474 9.268 14 15.703 12.316 4.407-1.155 2.488-8.99 5.234-12.624 1.894-2.507 4.248-5.898 7.39-5.85 5.098.077 8.51 5.875 11.7 9.853 4.997 6.232 3.097 21.314 11.08 21.245 3.442-.03 3.562-5.961 4.619-9.237 2.17-6.728-2.837-17.584 3.387-20.937 4.853-2.615 11.98 2.22 15.09 6.774 2.375 3.48.443 8.415.616 12.624.126 3.078-.256 6.208.308 9.237.915 4.914 2.137 10.02 4.926 14.163 1.907 2.836 4.28 6.712 7.698 6.774 1.458.026 2.67-1.501 3.387-2.771 1.426-2.529.565-5.796 1.232-8.621 1.119-4.738.708-10.956 4.619-13.856 9.238-6.848 23.01-1.67 34.485-.924 1.97.128 4.326-.331 5.85.924 5.315 4.374 5.823 12.631 7.082 19.398 1.051 5.651.959 11.531.308 17.242-.288 2.523-.101 5.547-1.847 7.39-2.881 3.039-7.983 2.538-12.01 3.695-7.25 2.085-14.33 6.284-21.861 5.85-4.738-.273-9.529-2.277-13.24-5.234-4.964-3.957-4.803-13.553-10.777-15.703z" id="p2" fill="#ff0" fill-rule="evenodd" stroke="#a55d4f" stroke-width="3"/><path d="m-524.81 876.87c-1.219-1.772-4.057-1.536-5.847-2.729-3.291-2.193-8.77-7.991-8.77-7.991 0 0 3.6 5.328 5.652 7.796 1.146 1.378 4.175 2.169 3.703 3.898-.373 1.369-2.678 1.062-4.093 1.169-3.591.273-7.19-.646-10.719-1.364-5.622-1.145-11.829-1.439-16.566-4.677-3.293-2.251-5.283-6.06-7.211-9.55-2.216-4.01-3.255-8.573-4.872-12.863-.783-2.078-2.339-6.237-2.339-6.237 0 0 .415 8.366 1.169 12.473.572 3.116 2.107 6.02 2.534 9.16.114.837.527 1.874 0 2.534-.914 1.145-2.827 1.1-4.288.974-5.05-.434-9.889-2.93-14.03-5.847-3.234-2.276-5.906-5.409-7.991-8.77-2.83-4.562-4.218-9.891-5.847-15.01-.813-2.552-1.949-7.796-1.949-7.796 0 0-.226 7.713.39 11.499.696 4.281 4.551 8.22 3.703 12.473-.262 1.313-1.221 2.855-2.534 3.118-2.964.595-5.31-2.892-7.991-4.288-12.781-6.655-38.589-19.489-38.589-19.489 0 0 27.498 13.39 38.39 23.777.913.87 2.348 1.874 2.144 3.118-.158.962-1.507 1.247-2.339 1.754-2.034 1.24-4.16 2.4-6.431 3.118-5.02 1.588-15.591 2.534-15.591 2.534 0 0 7.928 1.078 11.888.78 4.841-.364 9.465-2.173 14.227-3.118 2.912-.578 5.802-1.643 8.77-1.559 3.67.103 7.248 1.338 10.719 2.534 3.381 1.164 7.31 1.865 9.745 4.483.378.406.711 1.019.585 1.559-.629 2.685-3.853 3.974-6.04 5.652-4.492 3.444-14.422 8.965-14.422 8.965 0 0 12.496-4.86 18.515-7.796 2.875-1.402 5.293-3.839 8.38-4.677 2.947-.8 6.144-.676 9.16-.195 4.404.702 8.256 3.527 12.623 4.43 2.948.61 6.01.86 9.01.637 1.195-.089 2.482-1.398 3.508-.78 1.268.765-.062 3.463 1.169 4.288 1.741 1.166 4.386.203 6.237-.78 1.22-.648 1.591-2.336 2.729-3.118 1.084-.745 2.99-.259 3.703-1.364.495-.766.322-1.977-.195-2.728" id="p3" fill="#a55d4f" fill-rule="evenodd"/></g><g transform="matrix(-1 0 0 1-861.94 0)"><use xlink:href="#p2" width="786.86" height="894.54"/><use xlink:href="#p3" width="786.86" height="894.54"/></g></g><g transform="translate(822.02-120.38)"><g><path d="m-428.59 1011.89c0 0-4.671-23.663-12.01-32.638-4.579-5.601-11.65-8.99-18.474-11.392-3.122-1.099-6.905.274-9.853-1.232-1.876-.958-4.067-2.527-4.311-4.619-.287-2.466 2.188-4.493 3.695-6.466 1.233-1.615 4.27-2.279 4.311-4.311.036-1.815-2.069-3.194-3.695-4-3.786-1.882-8.448-1.89-12.624-1.232-5.085.802-9.544 3.886-14.163 6.158-3.05 1.5-5.552 5.317-8.929 4.926-4.259-.493-9.256-4.344-9.545-8.621-.408-6.03 12.649-7.886 11.7-13.856-.398-2.503-3.954-3.663-6.466-4-7.949-1.076-15.202 8.218-23.09 6.774-5.189-.95-12.03-4.303-12.624-9.545-.66-5.863 12.13-7.694 11.392-13.548-.332-2.628-4.03-3.585-6.466-4.619-4.708-1.996-10.336-.881-15.09-2.771-4.206-1.673-8.777-3.696-11.392-7.39-1.769-2.499-2.813-5.939-2.155-8.929 1.349-6.137 5.542-13.529 11.7-14.779 6.077-1.233 10.911 5.895 16.319 8.929 4.13 2.317 7.596 7.461 12.316 7.082 2.109-.17 4.335-1.971 4.926-4 .998-3.428-4.626-6.812-3.387-10.161.831-2.245 3.769-3.843 6.158-3.695 5.984.37 10.236 6.555 14.163 11.08 5.663 6.53 4.3 22.02 12.932 22.477 2.788.149 3.091-4.67 4.926-6.774 2.338-2.68 4.141-7.426 7.698-7.39 4.644.047 7.564 5.811 9.853 9.853 3.961 6.997 3.491 15.714 5.85 23.401 1.315 4.283.173 12.06 4.619 12.624 1.977.25 2.41-3.19 3.387-4.926 1.104-1.962.544-5.83 2.771-6.158 3.095-.456 4.418 4.482 6.158 7.082 4.212 6.294 7.828 13.12 10.161 20.322 5.862 18.11 9.237 56.35 9.237 56.35z" id="p4" fill="#ff0" fill-rule="evenodd" stroke="#a55d4f" stroke-width="3"/><path d="m-435.27 983.29c0 0-2.412-11.204-3.37-16.852-.627-3.699-1.556-11.148-1.556-11.148l-.74 11.03c0 0-2.798-3.353-3.668-5.324-2.01-4.545-1.986-9.747-3.37-14.519-1.021-3.517-3.63-10.37-3.63-10.37 0 0 1.252 7.944 1.815 11.926.28 1.985 2.428 4.826.778 5.963-1.051.724-2.351-1.048-3.37-1.815-4.836-3.636-8.418-8.693-12.704-12.963-3.16-3.149-7.546-5.369-9.593-9.333-2.327-4.507-1.089-10.12-2.333-15.04-1.012-4-4.148-11.667-4.148-11.667 0 0 1.296 8.099 1.556 12.185.175 2.76.762 5.638 0 8.296-.225.784-.509 1.862-1.296 2.074-1.605.432-2.932-1.567-4.407-2.333-4.218-2.192-9.31-3.152-12.704-6.481-4.057-3.98-5.215-10.1-8.04-15.04-3.621-6.329-11.407-18.667-11.407-18.667 0 0 4.59 10.441 6.481 15.815.808 2.295 1.725 4.592 2.074 7 .124.855.631 2 0 2.593-.949.888-2.631.067-3.889-.259-6.661-1.728-12.219-6.412-18.667-8.815-7.23-2.694-22.296-6.222-22.296-6.222 0 0 15.981 6.38 23.852 9.852 5.766 2.543 11.653 4.887 17.11 8.04 2.097 1.21 5.165 1.862 5.963 4.148.297.852-.189 1.909-.778 2.593-2.12 2.46-5.831 2.868-8.815 4.148-4.601 1.975-14 5.444-14 5.444 0 0 7.282-1.273 10.889-2.074 5.484-1.217 10.719-3.97 16.333-4.148 2.812-.089 5.648.605 8.296 1.556 4.551 1.633 9.754 3.169 12.704 7 .652.847 1.144 2.107.778 3.111-1.06 2.907-4.867 3.85-7.519 5.444-4.207 2.529-13.222 6.481-13.222 6.481 0 0 8.03-1.622 11.926-2.852 3.811-1.202 7.152-4.423 11.148-4.407 4.381.017 8.393 2.732 12.185 4.926 3.517 2.034 6.577 4.796 9.593 7.519 2.404 2.171 5.106 4.203 6.741 7 .455.779 1.295 1.854.778 2.593-1.738 2.481-6.05.432-9.07.519-2.073.059-6.222 0-6.222 0 0 0 6.999 1.242 10.37 2.333 2.505.811 5.156 1.528 7.259 3.111 2.945 2.215 4.912 5.519 7 8.556 1.974 2.87 6.163 6.14 5.185 9.07" id="p5" fill="#a55d4f" fill-rule="evenodd"/></g><g transform="matrix(-1 0 0 1-857.18 0)"><use xlink:href="#p4" width="786.86" height="894.54"/><use xlink:href="#p5" width="786.86" height="894.54"/></g></g><path d="m134.26 143.15v374.91a259.17075 245.19296 0 0 0 259.17188 245.19336 259.17075 245.19296 0 0 0 259.16992 -245.19336v-374.91h-518.34z" fill="#fff" stroke="#3f1cad" stroke-linejoin="round" stroke-linecap="round" stroke-width="3"/><path d="m144.3 152.93v363.08a249.12941 237.45734 0 0 0 249.13051 237.45772 249.12941 237.45734 0 0 0 249.12862 -237.45772v-363.08h-498.26" fill="#3f59d2"/><g stroke="#3f1cad"><g fill="#fff" stroke-width="3"><path d="m313.78 201.77l-6.348 16.08-16.531-5.064 8.613 14.992-14.266 9.77 17.09 2.611-1.258 17.244 12.697-11.734 12.699 11.734-1.258-17.244 17.09-2.611-14.266-9.77 8.613-14.992-16.531 5.064-6.35-16.08m159.29 0l-6.35 16.08-16.531-5.064 8.615 14.992-14.268 9.77 17.09 2.611-1.258 17.244 12.699-11.734 12.697 11.734-1.258-17.244 17.09-2.611-14.266-9.77 8.613-14.992-16.531 5.064-6.348-16.08m-79.64 51.41l-6.35 16.08-16.531-5.064 8.613 14.992-14.266 9.77 17.09 2.611-1.258 17.244 12.699-11.734 12.697 11.734-1.258-17.244 17.09-2.611-14.266-9.77 8.613-14.992-16.531 5.064-6.348-16.08"/><g stroke-linecap="round"><path d="m204.81 215.86l56.09 95.47-2.405-27.01 297.05 342.08c1.582 1.821 4.323 2.01 6.144.433 1.821-1.582 2.01-4.322.431-6.143l-297.06-342.08 26.407 6.167-86.66-68.918z"/><path d="m538.97 594.03l29.15-.961 12.397 14.276-29.15.961z"/><path d="m526.57 579.76l29.15-.961 12.397 14.276-29.15.961z"/><path d="m501.78 551.2l29.15-.961 12.397 14.276-29.15.961z"/><path d="m489.38 536.93l29.15-.961 12.397 14.276-29.15.961z"/><path d="m476.98 522.66l29.15-.961 12.397 14.276-29.15.961z"/><path d="m579.73 204.79c0 0-17.06 39.852-27.904 58.56-11.526 19.89-24.884 38.76-39.26 56.695-19.336 24.12-40.985 46.35-62.934 68.12-20.613 20.444-42.6 39.464-64.46 58.57-36.56 31.961-111.5 93.76-111.5 93.76l21.09 24.13c0 0 12.206-11.544 18.438-17.18 34.469-31.15 70.47-60.57 104.8-91.87 25.367-23.13 51.42-45.655 74.73-70.854 12.537-13.552 24.774-27.575 34.869-43.03 16.217-24.833 31.03-51.07 40.777-79.08 6.456-18.547 11.352-57.811 11.352-57.811z"/><path d="m493.74 507.42l-29.15.963 12.396 14.275 29.15-.961-12.396-14.277z"/><path d="m265.73 548.14c0 0-2.87 6.432-5.05 9.145-12.366 15.354-32.949 22.993-44.47 38.988-4.568 6.34-9.06 13.799-9.08 21.613-.008 5.214 2.264 10.817 6.01 14.441 2.661 2.573 6.688 3.832 10.389 3.922 3.233.078 7.098-.553 9.232-2.982 3.139-3.573 1.2-9.486 2.607-14.03.976-3.15 1.992-6.435 4.01-9.04 4.599-5.952 11.985-9.109 17.654-14.05 6.505-5.672 12.264-12.161 18.732-17.875 3-2.65 9.301-7.598 9.301-7.598 0 0-11.354-2.763-14.91-6.934-3.505-4.112-4.422-15.594-4.422-15.594z"/><path d="m532.39 599.75l-5.04 28.73 12.396 14.277 5.04-28.732-12.396-14.275z"/><path d="m228.06 611.29c.114 0 .226.043.336.098.361.181.657.415.898.693 1.689 1.951.7 6.06.543 8.877-.177 3.189-.376 6.845-2.469 9.258-.952 1.098-2.557 1.642-4.01 1.709-2.75.126-5.878-.624-7.863-2.531-1.486-1.427-3.195-4.04-2.129-5.803.488-.807 1.895-.118 2.803-.373 2.18-.612 4.613-1.142 6.215-2.742 1.984-1.982 1.501-5.637 3.408-7.693.585-.631 1.466-1.564 2.266-1.492z"/><path d="m520 585.47l-5.04 28.732 12.397 14.276 5.04-28.732z"/><path d="m507.6 571.19l-5.04 28.732 12.397 14.276 5.04-28.732z"/><path d="m495.21 556.92l-5.04 28.732 12.397 14.276 5.04-28.732z"/><path d="m482.81 542.64l-5.04 28.732 12.397 14.276 5.04-28.732z"/><path d="m470.41 528.37l-5.04 28.732 12.397 14.276 5.04-28.732z"/><path d="m458.01 514.09l-5.04 28.732 12.397 14.276 5.04-28.732z"/></g></g><g fill-rule="evenodd"><path d="m285.43 550.71c0 0 54.35-46.99 80.87-71.21 39.993-36.529 81.33-71.859 117.97-111.75 22.687-24.697 46.04-49.562 62.755-78.64 15.03-26.14 32.711-84.33 32.711-84.33" fill="none" stroke-width="1.8"/><g fill="#fff" stroke-linecap="round" stroke-width="3"><path d="m257.48 571.64l11.595 12.759"/><path d="m253.37 575.38l11.77 12.951"/><path d="m248.76 578.58l12.142 13.361"/><path d="m244.64 582.32l12.377 13.619"/><path d="m240.1 585.6l12.586 13.85"/><path d="m235.98 589.34l11.857 13.05"/><path d="m232.89 594.2l10.455 11.505"/><path d="m228.77 597.94l10.684 11.756"/><path d="m224.74 601.78l11.937 13.14"/></g></g><g fill="#fff" stroke-linecap="round" stroke-width="3"><path d="m247.43 511.57c-1.56.066-3.096.337-4.533.844-3.244 1.144-5.521 4.17-7.84 6.711-1.771 1.94-3.433 4.056-4.559 6.43-.78 1.647-1.451 5.27-1.451 5.27 0 0 6.337-3.01 9.6-2.482 5.762.937 10.411 5.564 14.693 9.531 4.383 4.061 8.695 8.686 10.871 14.25 1.589 4.062 1.79 8.703 1.23 13.03-.327 2.527-2.633 7.176-2.633 7.176 0 0 4.848-1.851 7.395-1.936 4.36-.144 8.96.499 12.852 2.469 5.331 2.698 9.524 7.429 13.148 12.18 3.541 4.641 7.704 9.712 8.09 15.537.217 3.298-3.389 9.316-3.389 9.316 0 0 3.671-.32 5.385-.939 2.471-.894 4.735-2.346 6.836-3.924 2.75-2.066 5.98-4.046 7.428-7.166 1.711-3.687 1.811-8.229.799-12.166-1.906-7.411-7.773-13.222-12.371-19.338-5.336-7.097-17.57-20.02-17.57-20.02 0 0-2.924-3.354-6.668-7.455-3.744-4.101-8.308-8.953-11.586-11.947-5.649-5.161-10.871-11.554-18.07-14.158-2.389-.865-5.056-1.321-7.656-1.211z"/><path d="m245.51 520.97c1.826.014 3.674.398 5.332 1.107 3.203 1.371 5.784 3.977 8.191 6.496.473.495.942.994 1.406 1.502 3.251 3.556 6.243 7.447 8.201 11.818 1.579 3.524 2.098 7.47 2.498 11.311.208 1.997-.059 6.02-.059 6.02 0 0-.73-6.705-2.152-9.693-2.94-6.177-7.823-11.332-12.742-16.09-3.763-3.637-7.704-7.568-12.635-9.322-1.983-.705-5.737-.82-6.307-.303 0 0 4.136-2.435 6.453-2.742.596-.079 1.204-.116 1.813-.111z"/><path d="m543.33 564.52l-29.15.961 12.396 14.277 29.15-.961-12.398-14.277z"/><path d="m276.65 565.34c0 0 4.03.12 6 .518 3.785.765 7.664 1.661 11.02 3.568 4.165 2.366 7.751 5.714 10.98 9.289.461.511.914 1.027 1.361 1.545 2.278 2.636 4.624 5.452 5.684 8.771.731 2.291.853 4.864.311 7.207-.527 2.277-3.348 6.162-3.348 6.162.57-.518.816-4.265.303-6.307-1.276-5.076-4.813-9.372-8.07-13.465-4.262-5.35-8.927-10.705-14.795-14.221-2.839-1.701-9.443-3.068-9.443-3.068z"/></g></g></svg>